<svg id="Layer_1" data-name="Layer 1" xmlns="http://www.w3.org/2000/svg" xmlns:xlink="http://www.w3.org/1999/xlink" width="1280" height="618.5" viewBox="0 0 1280 618.5">
  <defs>
    <style>
      .cls-1 {
        fill: url(#linear-gradient);
      }

      .cls-2 {
        fill: #fff;
        opacity: 0.15;
      }
    </style>
    <linearGradient id="linear-gradient" x1="-0.19" y1="2.04" x2="1208.37" y2="540.13" gradientUnits="userSpaceOnUse">
      <stop offset="0" stop-color="#311b92"/>
      <stop offset="0.26" stop-color="#351e95"/>
      <stop offset="0.55" stop-color="#42259e"/>
      <stop offset="0.84" stop-color="#5831ac"/>
      <stop offset="1" stop-color="#673ab7"/>
    </linearGradient>
  </defs>
  <title>new</title>
  <path class="cls-1" d="M1280.5.5V378.12s-78.14-30.86-189.7,40A434.45,434.45,0,0,0,1046,451a299.68,299.68,0,0,1-57.56,37.51C912,526.74,821.78,533,741.91,517.34q-6.76-1.32-13.41-2.86-23.26-5.37-44.21-8.59c-90-14-150.22-.45-200.78,21.44-26.6,11.5-50.54,25.31-74.77,38.63C369.21,587.68,328.9,608.09,275,615a502.13,502.13,0,0,1-105.82,2.19,534.7,534.7,0,0,1-125.62-26C16.18,581.93.5,573.92.5,573.92V.5Z" transform="translate(-0.5 -0.5)"/>
  <path class="cls-2" d="M408.74,566C369.21,587.68,328.9,608.09,275,615a502.13,502.13,0,0,1-105.82,2.19,534.7,534.7,0,0,1-125.62-26c69.86-39.57,170.67-75.72,284.7-51.86A380.3,380.3,0,0,1,408.74,566Z" transform="translate(-0.5 -0.5)"/>
  <path class="cls-2" d="M988.44,488.47C912,526.74,821.78,533,741.91,517.34q-6.76-1.32-13.41-2.86-23.26-5.37-44.21-8.59C708.49,483.83,740.69,463,776,463,853.63,463,868,508.12,988.44,488.47Z" transform="translate(-0.5 -0.5)"/>
  <path class="cls-2" d="M483.51,527.33c-26.6,11.5-50.54,25.31-74.77,38.63C369.21,587.68,328.9,608.09,275,615a502.13,502.13,0,0,1-105.82,2.19c35.72-24.92,92.14-58.5,159.08-77.87A391.25,391.25,0,0,1,404,525,343.11,343.11,0,0,1,483.51,527.33Z" transform="translate(-0.5 -0.5)"/>
  <path class="cls-2" d="M1090.8,418.13A434.45,434.45,0,0,0,1046,451c-85.21,70.88-203,86.25-304.09,66.38C821.49,467.57,937.18,396.85,1090.8,418.13Z" transform="translate(-0.5 -0.5)"/>
</svg>
