<svg width="1440" height="930" viewBox="0 0 1440 930" fill="none" xmlns="http://www.w3.org/2000/svg">
<path d="M1444 927.5C1184.5 842 998 860.534 697.5 891.532C252 937.488 183.5 956.168 0 862.5V0H1444V927.5Z" fill="url(#paint0_radial)"/>
<path d="M351.675 300.726L376.686 316.552L356.464 329.933L351.675 300.726Z" fill="#7A48D8"/>
<path d="M1055.45 225.178L1054.41 254.757L1032.65 244.057L1055.45 225.178Z" fill="#7A48D8"/>
<path d="M1089.89 307.809L1073.62 332.538L1060.6 312.084L1089.89 307.809Z" fill="#7A48D8"/>
<path d="M1182.89 209.809L1166.62 234.538L1153.6 214.084L1182.89 209.809Z" fill="#7A48D8"/>
<path d="M1204.89 286.809L1188.62 311.538L1175.6 291.084L1204.89 286.809Z" fill="#7A48D8"/>
<path d="M1166.89 392.809L1150.62 417.538L1137.6 397.084L1166.89 392.809Z" fill="#7A48D8"/>
<path d="M426.388 213.094L445.878 235.368L422.689 242.459L426.388 213.094Z" fill="#7A48D8"/>
<path d="M331.388 202.094L350.878 224.368L327.689 231.459L331.388 202.094Z" fill="#7A48D8"/>
<path d="M264.757 276.961L291.354 289.945L272.723 305.466L264.757 276.961Z" fill="#7A48D8"/>
<path d="M328.757 404.961L355.354 417.945L336.723 433.466L328.757 404.961Z" fill="#7A48D8"/>
<defs>
<radialGradient id="paint0_radial" cx="0" cy="0" r="1" gradientUnits="userSpaceOnUse" gradientTransform="translate(1444 452) rotate(180) scale(1444 4526.92)">
<stop offset="0.0677083" stop-color="#673AB7"/>
<stop offset="1" stop-color="#311B92"/>
</radialGradient>
</defs>
</svg>
