<svg width="1440" height="538" viewBox="0 0 1440 538" fill="none" xmlns="http://www.w3.org/2000/svg">
<path d="M1444 469.622C1192.5 469.622 998 512.132 697.5 530.58C252 557.93 183.5 504.913 0 449.168V0H1444V469.622Z" fill="url(#paint0_linear)"/>
<path d="M351.675 300.726L376.686 316.552L356.464 329.933L351.675 300.726Z" fill="#357684"/>
<path d="M1055.45 225.178L1054.41 254.757L1032.65 244.057L1055.45 225.178Z" fill="#357684"/>
<path d="M1089.89 307.809L1073.62 332.538L1060.6 312.084L1089.89 307.809Z" fill="#357684"/>
<path d="M1182.89 209.809L1166.62 234.538L1153.6 214.084L1182.89 209.809Z" fill="#357684"/>
<path d="M1204.89 286.809L1188.62 311.538L1175.6 291.084L1204.89 286.809Z" fill="#357684"/>
<path d="M1166.89 392.809L1150.62 417.538L1137.6 397.084L1166.89 392.809Z" fill="#357684"/>
<path d="M426.388 213.094L445.878 235.368L422.689 242.459L426.388 213.094Z" fill="#357684"/>
<path d="M331.388 202.094L350.878 224.368L327.689 231.459L331.388 202.094Z" fill="#357684"/>
<path d="M264.757 276.961L291.354 289.945L272.723 305.466L264.757 276.961Z" fill="#357684"/>
<path d="M328.757 404.961L355.354 417.945L336.723 433.466L328.757 404.961Z" fill="#357684"/>
<defs>
<linearGradient id="paint0_linear" x1="1436" y1="277.5" x2="-3.16707e-05" y2="269" gradientUnits="userSpaceOnUse">
<stop stop-color="#26A69A"/>
<stop offset="1" stop-color="#004D40"/>
</linearGradient>
</defs>
</svg>
