<svg width="542" height="405" viewBox="0 0 542 405" fill="none" xmlns="http://www.w3.org/2000/svg">
<path opacity="0.1" d="M309.21 56.7967C276.18 55.6547 244.722 44.9989 214.682 33.3439C184.642 21.6888 154.888 8.75917 122.649 2.60535C101.913 -1.37144 78.1969 -1.93227 61.4929 9.17724C45.4217 19.8636 40.2161 38.3301 37.4244 55.4303C35.3218 68.309 34.0867 81.8658 39.8435 93.9236C43.8447 102.295 50.9387 109.331 55.8483 117.346C72.93 145.25 60.8549 179.654 42.3494 206.895C33.6733 219.672 23.5937 231.877 16.8927 245.465C10.1917 259.052 7.09387 274.653 12.9579 288.531C18.7658 302.297 32.6118 312.616 47.6112 319.882C78.0744 334.642 113.958 338.863 148.973 341.259C226.461 346.551 304.357 344.262 382.049 341.963C410.802 341.117 439.678 340.255 467.962 335.814C483.671 333.347 499.885 329.431 511.292 319.978C525.765 307.982 529.353 287.67 519.651 272.624C503.381 247.392 458.408 241.126 447.022 214.048C440.765 199.14 447.191 182.54 456.29 168.718C475.806 139.06 508.515 113.043 510.235 79.1483C511.419 55.8688 495.695 32.5536 471.382 21.5359C445.899 9.9879 410.557 11.441 391.766 30.5499C372.398 50.235 338.367 57.8113 309.21 56.7967Z" fill="#00B0FF"/>
<path d="M132.443 62.9556H0V195.265H132.443V62.9556Z" fill="#E8E9ED"/>
<path d="M542 62.9556H409.557V195.265H542V62.9556Z" fill="#E8E9ED"/>
<path opacity="0.5" d="M74.2009 16.3303L72.8791 14.9792C72.8528 14.9499 72.8205 14.9265 72.7844 14.9107C72.7483 14.8948 72.7093 14.8869 72.6699 14.8875C72.6303 14.8862 72.591 14.8938 72.5548 14.9097C72.5186 14.9256 72.4864 14.9493 72.4606 14.9792L63.3252 24.1564L59.9977 20.8373C59.9709 20.8086 59.9385 20.7857 59.9025 20.7701C59.8665 20.7544 59.8277 20.7463 59.7884 20.7463C59.7491 20.7463 59.7103 20.7544 59.6743 20.7701C59.6383 20.7857 59.6059 20.8086 59.5792 20.8373L58.2471 22.168C58.2181 22.1957 58.195 22.2289 58.1792 22.2657C58.1634 22.3025 58.1553 22.3421 58.1553 22.3822C58.1553 22.4222 58.1634 22.4619 58.1792 22.4987C58.195 22.5355 58.2181 22.5687 58.2471 22.5963L62.4423 26.7821C62.6675 27.0313 62.9799 27.1846 63.315 27.2104C63.646 27.1815 63.9557 27.035 64.1877 26.7974L74.206 16.7586C74.2588 16.6997 74.2879 16.6235 74.2879 16.5445C74.2879 16.4654 74.2588 16.3892 74.206 16.3303H74.2009Z" fill="#3ACC6C"/>
<path opacity="0.5" d="M66.2189 7.58643C69.3345 7.58866 72.3529 8.66985 74.76 10.6458C77.1671 12.6218 78.814 15.3704 79.4202 18.4233C80.0264 21.4762 79.5544 24.6447 78.0845 27.3889C76.6147 30.1332 74.2379 32.2835 71.3591 33.4736C68.4803 34.6637 65.2776 34.8199 62.2964 33.9157C59.3152 33.0114 56.7401 31.1027 55.0096 28.5145C53.2791 25.9264 52.5003 22.819 52.8059 19.7216C53.1114 16.6242 54.4825 13.7284 56.6854 11.5275C57.9349 10.2737 59.4208 9.27984 61.0572 8.60337C62.6936 7.92689 64.448 7.58125 66.2189 7.58643ZM66.2189 5.49097C63.137 5.49097 60.1244 6.404 57.5619 8.11459C54.9995 9.82518 53.0024 12.2565 51.8233 15.101C50.6441 17.9455 50.3358 21.0755 50.9375 24.0951C51.5391 27.1146 53.0236 29.8881 55.2031 32.0648C57.3827 34.2415 60.1595 35.7236 63.1823 36.3236C66.2051 36.9236 69.3381 36.6146 72.1851 35.4357C75.0321 34.2568 77.4652 32.261 79.1767 29.7006C80.8882 27.1402 81.8012 24.1302 81.8001 21.0514C81.8008 19.0074 81.3982 16.9832 80.6154 15.0947C79.8325 13.2062 78.6848 11.4903 77.2377 10.0452C75.7907 8.6001 74.0727 7.45406 72.182 6.67261C70.2913 5.89116 68.265 5.48963 66.2189 5.49097Z" fill="#00B0FF"/>
<path opacity="0.8" d="M176.492 59.8354L174.828 58.1325C174.795 58.0965 174.755 58.068 174.71 58.0486C174.665 58.0293 174.617 58.0197 174.568 58.0203C174.518 58.0182 174.469 58.0272 174.423 58.0466C174.377 58.066 174.336 58.0953 174.303 58.1325L162.804 69.7059L158.614 65.5252C158.581 65.4898 158.54 65.4615 158.496 65.4422C158.451 65.4229 158.403 65.413 158.354 65.4131C158.304 65.4129 158.255 65.4228 158.21 65.4421C158.164 65.4613 158.123 65.4896 158.089 65.5252L156.409 67.2026C156.373 67.2369 156.344 67.2784 156.324 67.3244C156.304 67.3705 156.293 67.4201 156.293 67.4703C156.293 67.5204 156.304 67.5701 156.324 67.6161C156.344 67.6621 156.373 67.7036 156.409 67.7379L161.687 72.9995C161.972 73.3125 162.366 73.5041 162.789 73.5349C163.202 73.4995 163.589 73.3188 163.881 73.025L176.487 60.3605C176.546 60.2886 176.578 60.1985 176.578 60.1056C176.578 60.0127 176.546 59.9226 176.487 59.8507L176.492 59.8354Z" fill="#3ACC6C"/>
<path opacity="0.8" d="M166.438 48.8227C170.364 48.8235 174.168 50.1841 177.202 52.6727C180.236 55.1612 182.313 58.6237 183.078 62.4703C183.843 66.3169 183.25 70.3095 181.399 73.768C179.548 77.2265 176.554 79.9369 172.927 81.4374C169.3 82.9379 165.264 83.1357 161.507 81.9971C157.751 80.8585 154.506 78.4539 152.325 75.193C150.144 71.9321 149.162 68.0166 149.547 64.1137C149.931 60.2108 151.659 56.5618 154.434 53.7885C156.006 52.2081 157.877 50.9552 159.938 50.1027C161.998 49.2503 164.208 48.8152 166.438 48.8227ZM166.438 46.1868C162.559 46.1868 158.767 47.3359 155.542 49.4888C152.316 51.6418 149.802 54.7018 148.318 58.282C146.833 61.8623 146.445 65.8018 147.202 69.6026C147.959 73.4033 149.827 76.8945 152.569 79.6347C155.312 82.3748 158.807 84.2409 162.612 84.9969C166.416 85.7529 170.36 85.3649 173.944 83.882C177.527 82.399 180.591 79.8877 182.746 76.6655C184.901 73.4434 186.051 69.6553 186.051 65.7801C186.052 63.2069 185.545 60.6587 184.559 58.2813C183.574 55.9038 182.129 53.7436 180.308 51.924C178.487 50.1045 176.324 48.6613 173.944 47.6769C171.565 46.6924 169.014 46.1861 166.438 46.1868Z" fill="#00B0FF"/>
<path opacity="0.5" d="M475.776 7.58643C478.892 7.58866 481.91 8.66985 484.317 10.6458C486.724 12.6218 488.371 15.3704 488.977 18.4233C489.584 21.4762 489.112 24.6447 487.642 27.3889C486.172 30.1332 483.795 32.2835 480.916 33.4736C478.037 34.6637 474.835 34.8199 471.854 33.9157C468.872 33.0114 466.297 31.1027 464.567 28.5145C462.836 25.9264 462.057 22.819 462.363 19.7216C462.669 16.6242 464.04 13.7284 466.243 11.5275C467.492 10.2737 468.978 9.27984 470.614 8.60337C472.251 7.92689 474.005 7.58125 475.776 7.58643ZM475.776 5.49097C472.694 5.49097 469.681 6.404 467.119 8.11459C464.557 9.82518 462.56 12.2565 461.38 15.101C460.201 17.9455 459.893 21.0755 460.495 24.0951C461.096 27.1146 462.581 29.8881 464.76 32.0648C466.94 34.2415 469.717 35.7236 472.739 36.3236C475.762 36.9236 478.895 36.6146 481.742 35.4357C484.589 34.2568 487.022 32.261 488.734 29.7006C490.445 27.1402 491.358 24.1302 491.357 21.0514C491.358 19.0074 490.955 16.9832 490.172 15.0947C489.39 13.2062 488.242 11.4903 486.795 10.0452C485.348 8.6001 483.63 7.45406 481.739 6.67261C479.848 5.89116 477.822 5.48963 475.776 5.49097Z" fill="#00B0FF"/>
<path opacity="0.8" d="M374.842 48.8227C378.769 48.8177 382.576 50.1733 385.615 52.6585C388.653 55.1438 390.734 58.6048 391.504 62.4515C392.274 66.2983 391.685 70.2928 389.836 73.754C387.988 77.2152 384.995 79.9289 381.369 81.4326C377.742 82.9362 373.705 83.1367 369.947 81.9999C366.188 80.8631 362.941 78.4593 360.758 75.1983C358.575 71.9373 357.592 68.021 357.976 64.1169C358.36 60.2128 360.088 56.5626 362.864 53.7886C364.437 52.2094 366.308 50.9575 368.368 50.1051C370.429 49.2528 372.638 48.8169 374.868 48.8227H374.842ZM374.868 46.1868C370.989 46.1868 367.197 47.3359 363.972 49.4889C360.746 51.6418 358.232 54.7019 356.748 58.2821C355.263 61.8623 354.875 65.8018 355.632 69.6026C356.389 73.4033 358.256 76.8945 360.999 79.6347C363.742 82.3749 367.237 84.2409 371.042 84.997C374.846 85.753 378.79 85.3649 382.373 83.882C385.957 82.399 389.02 79.8877 391.176 76.6656C393.331 73.4435 394.481 69.6553 394.481 65.7801C394.482 63.2047 393.974 60.6545 392.987 58.2754C392 55.8962 390.553 53.7349 388.729 51.915C386.905 50.0951 384.739 48.6525 382.357 47.6696C379.974 46.6866 377.42 46.1828 374.842 46.1868H374.868Z" fill="#00B0FF"/>
<path d="M270.148 79.913C275.335 79.9165 280.361 81.7165 284.369 85.0065C288.377 88.2964 291.119 92.8728 292.129 97.956C293.138 103.039 292.353 108.315 289.905 112.884C287.458 117.454 283.501 121.034 278.707 123.016C273.914 124.997 268.581 125.257 263.618 123.752C258.654 122.246 254.366 119.068 251.485 114.759C248.603 110.449 247.307 105.275 247.816 100.118C248.324 94.9607 250.607 90.1392 254.275 86.4747C256.355 84.3865 258.829 82.7312 261.553 81.6049C264.278 80.4785 267.199 79.9035 270.148 79.913ZM270.148 76.4257C265.019 76.4257 260.005 77.945 255.741 80.7915C251.477 83.638 248.153 87.6838 246.19 92.4174C244.228 97.1509 243.714 102.36 244.715 107.385C245.715 112.41 248.185 117.026 251.811 120.649C255.438 124.271 260.058 126.739 265.089 127.738C270.119 128.738 275.333 128.225 280.071 126.264C284.809 124.303 288.859 120.983 291.709 116.723C294.558 112.463 296.079 107.454 296.079 102.331C296.08 98.9287 295.409 95.5598 294.106 92.4166C292.803 89.2733 290.893 86.4173 288.485 84.0116C286.077 81.606 283.218 79.6978 280.072 78.3962C276.925 77.0946 273.553 76.425 270.148 76.4257Z" fill="#00B0FF"/>
<path d="M240.236 97.6353H92.6401V245.082H240.236V97.6353Z" fill="#F3F5F7"/>
<path d="M448.64 97.6353H301.045V245.082H448.64V97.6353Z" fill="#F3F5F7"/>
<path opacity="0.1" d="M62.4628 86.4441H13.2336V91.9096H62.4628V86.4441Z" fill="black"/>
<path opacity="0.1" d="M482.62 86.4441H433.391V91.9096H482.62V86.4441Z" fill="black"/>
<path d="M357.858 315.293C357.858 315.293 370.647 292.661 389.908 286.14C398.004 283.456 405.01 278.222 409.874 271.222C412.155 267.875 414.127 264.327 415.763 260.622" stroke="#535461" stroke-width="2" stroke-miterlimit="10"/>
<path d="M427.874 256.457C425.679 258.583 415.457 260.785 415.457 260.785C415.457 260.785 417.968 250.645 420.162 248.513C421.217 247.492 422.634 246.931 424.103 246.953C425.572 246.976 426.971 247.58 427.994 248.633C429.016 249.687 429.578 251.103 429.556 252.57C429.533 254.037 428.928 255.435 427.874 256.457Z" fill="#00B0FF"/>
<path d="M422.091 274.801C419.091 275.398 409.333 271.696 409.333 271.696C409.333 271.696 416.952 264.558 419.953 263.952C421.378 263.703 422.844 264.021 424.038 264.838C425.231 265.656 426.057 266.907 426.338 268.325C426.62 269.742 426.334 271.214 425.544 272.424C424.753 273.635 423.519 274.488 422.107 274.801H422.091Z" fill="#00B0FF"/>
<path d="M401.039 294.659C398.151 293.64 391.582 285.533 391.582 285.533C391.582 285.533 401.789 283.203 404.663 284.203C405.35 284.44 405.984 284.811 406.528 285.293C407.072 285.776 407.515 286.36 407.833 287.014C408.151 287.667 408.336 288.377 408.38 289.102C408.423 289.828 408.323 290.554 408.085 291.241C407.847 291.928 407.476 292.561 406.993 293.104C406.51 293.647 405.925 294.09 405.271 294.408C404.616 294.725 403.906 294.911 403.18 294.954C402.454 294.997 401.726 294.897 401.039 294.659Z" fill="#00B0FF"/>
<path d="M381.748 306.095C378.726 305.585 370.877 298.697 370.877 298.697C370.877 298.697 380.533 294.685 383.549 295.18C384.272 295.292 384.965 295.546 385.589 295.927C386.213 296.309 386.756 296.81 387.185 297.402C387.614 297.994 387.921 298.665 388.089 299.376C388.257 300.087 388.282 300.825 388.163 301.546C388.044 302.267 387.783 302.957 387.396 303.577C387.008 304.197 386.501 304.734 385.905 305.157C385.308 305.58 384.634 305.88 383.92 306.042C383.207 306.203 382.468 306.221 381.748 306.095Z" fill="#00B0FF"/>
<path d="M400.794 263.773C400.794 266.832 406.327 275.688 406.327 275.688C406.327 275.688 411.859 266.832 411.859 263.778C411.859 262.311 411.276 260.904 410.237 259.867C409.199 258.829 407.79 258.246 406.322 258.246C404.853 258.246 403.445 258.829 402.406 259.867C401.368 260.904 400.784 262.311 400.784 263.778L400.794 263.773Z" fill="#00B0FF"/>
<path d="M378.374 277.447C379.288 280.363 387.224 287.165 387.224 287.165C387.224 287.165 389.857 277.06 388.944 274.143C388.727 273.45 388.375 272.806 387.909 272.249C387.443 271.691 386.871 271.231 386.227 270.894C385.582 270.557 384.878 270.35 384.154 270.286C383.429 270.221 382.699 270.299 382.005 270.516C381.311 270.733 380.667 271.084 380.109 271.55C379.551 272.016 379.09 272.587 378.753 273.23C378.416 273.874 378.209 274.578 378.144 275.301C378.079 276.025 378.157 276.754 378.374 277.447Z" fill="#00B0FF"/>
<path d="M358.409 293.706C358.817 296.735 365.483 304.775 365.483 304.775C365.483 304.775 369.79 295.261 369.387 292.233C369.191 290.778 368.425 289.461 367.258 288.571C366.09 287.681 364.616 287.291 363.16 287.486C361.705 287.681 360.386 288.446 359.495 289.613C358.604 290.779 358.213 292.252 358.409 293.706Z" fill="#00B0FF"/>
<path opacity="0.25" d="M427.874 256.457C425.679 258.583 415.457 260.785 415.457 260.785C415.457 260.785 417.968 250.645 420.162 248.513C421.217 247.492 422.634 246.931 424.103 246.953C425.572 246.976 426.971 247.58 427.994 248.633C429.016 249.687 429.578 251.103 429.556 252.57C429.533 254.037 428.928 255.435 427.874 256.457Z" fill="black"/>
<path opacity="0.25" d="M422.091 274.801C419.091 275.398 409.333 271.696 409.333 271.696C409.333 271.696 416.952 264.558 419.953 263.952C421.378 263.703 422.844 264.021 424.038 264.838C425.231 265.656 426.057 266.907 426.338 268.325C426.62 269.742 426.334 271.214 425.544 272.424C424.753 273.635 423.519 274.488 422.107 274.801H422.091Z" fill="black"/>
<path opacity="0.25" d="M401.039 294.659C398.151 293.64 391.582 285.533 391.582 285.533C391.582 285.533 401.789 283.203 404.663 284.203C405.35 284.44 405.984 284.811 406.528 285.293C407.072 285.776 407.515 286.36 407.833 287.014C408.151 287.667 408.336 288.377 408.38 289.102C408.423 289.828 408.323 290.554 408.085 291.241C407.847 291.928 407.476 292.561 406.993 293.104C406.51 293.647 405.925 294.09 405.271 294.408C404.616 294.725 403.906 294.911 403.18 294.954C402.454 294.997 401.726 294.897 401.039 294.659Z" fill="black"/>
<path opacity="0.25" d="M381.748 306.095C378.726 305.585 370.877 298.697 370.877 298.697C370.877 298.697 380.533 294.685 383.549 295.18C384.272 295.292 384.965 295.546 385.589 295.927C386.213 296.309 386.756 296.81 387.185 297.402C387.614 297.994 387.921 298.665 388.089 299.376C388.257 300.087 388.282 300.825 388.163 301.546C388.044 302.267 387.783 302.957 387.396 303.577C387.008 304.197 386.501 304.734 385.905 305.157C385.308 305.58 384.634 305.88 383.92 306.042C383.207 306.203 382.468 306.221 381.748 306.095Z" fill="black"/>
<path opacity="0.25" d="M400.794 263.773C400.794 266.832 406.327 275.688 406.327 275.688C406.327 275.688 411.859 266.832 411.859 263.778C411.859 262.311 411.276 260.904 410.237 259.867C409.199 258.829 407.79 258.246 406.322 258.246C404.853 258.246 403.445 258.829 402.406 259.867C401.368 260.904 400.784 262.311 400.784 263.778L400.794 263.773Z" fill="black"/>
<path opacity="0.25" d="M378.374 277.447C379.288 280.363 387.224 287.165 387.224 287.165C387.224 287.165 389.857 277.06 388.944 274.143C388.727 273.45 388.375 272.806 387.909 272.249C387.443 271.691 386.871 271.231 386.227 270.894C385.582 270.557 384.878 270.35 384.154 270.286C383.429 270.221 382.699 270.299 382.005 270.516C381.311 270.733 380.667 271.084 380.109 271.55C379.551 272.016 379.09 272.587 378.753 273.23C378.416 273.874 378.209 274.578 378.144 275.301C378.079 276.025 378.157 276.754 378.374 277.447Z" fill="black"/>
<path opacity="0.25" d="M358.409 293.706C358.817 296.735 365.483 304.775 365.483 304.775C365.483 304.775 369.79 295.261 369.387 292.233C369.191 290.778 368.425 289.461 367.258 288.571C366.09 287.681 364.616 287.291 363.16 287.486C361.705 287.681 360.386 288.446 359.495 289.613C358.604 290.779 358.213 292.252 358.409 293.706Z" fill="black"/>
<path d="M358.593 314.844C358.593 314.844 361.109 288.98 376.067 275.219C382.38 269.483 386.662 261.857 388.27 253.484C388.999 249.505 389.363 245.467 389.357 241.422" stroke="#535461" stroke-width="2" stroke-miterlimit="10"/>
<path d="M398.737 232.708C397.594 235.543 389.143 241.692 389.143 241.692C389.143 241.692 387.321 231.408 388.464 228.574C388.736 227.9 389.138 227.286 389.647 226.767C390.156 226.248 390.763 225.835 391.432 225.55C392.101 225.266 392.82 225.116 393.547 225.109C394.274 225.102 394.996 225.238 395.67 225.509C396.345 225.781 396.959 226.182 397.478 226.691C397.998 227.2 398.411 227.806 398.696 228.474C398.981 229.143 399.131 229.861 399.138 230.587C399.145 231.314 399.009 232.034 398.737 232.708Z" fill="#00B0FF"/>
<path d="M400.891 251.822C398.39 253.581 387.954 254.157 387.954 254.157C387.954 254.157 392.037 244.532 394.522 242.778C395.724 241.986 397.187 241.694 398.601 241.962C400.016 242.23 401.27 243.037 402.098 244.214C402.927 245.39 403.264 246.842 403.039 248.262C402.813 249.683 402.043 250.96 400.891 251.822Z" fill="#00B0FF"/>
<path d="M389.699 278.497C386.637 278.752 377.354 273.985 377.354 273.985C377.354 273.985 385.723 267.729 388.77 267.475C389.502 267.4 390.241 267.471 390.945 267.685C391.649 267.899 392.303 268.251 392.869 268.72C393.435 269.189 393.902 269.766 394.243 270.417C394.583 271.069 394.79 271.781 394.852 272.514C394.914 273.246 394.829 273.983 394.602 274.682C394.376 275.381 394.012 276.028 393.532 276.585C393.052 277.142 392.466 277.598 391.808 277.927C391.15 278.255 390.433 278.449 389.699 278.497Z" fill="#00B0FF"/>
<path d="M376.685 296.775C373.72 297.54 363.747 294.41 363.747 294.41C363.747 294.41 370.943 286.833 373.903 286.063C375.313 285.728 376.799 285.958 378.041 286.704C379.283 287.45 380.183 288.653 380.547 290.055C380.911 291.457 380.711 292.945 379.989 294.2C379.266 295.456 378.08 296.379 376.685 296.77V296.775Z" fill="#00B0FF"/>
<path d="M376.945 250.364C378.185 253.158 386.836 259.032 386.836 259.032C386.836 259.032 388.311 248.692 387.076 245.898C386.481 244.556 385.377 243.505 384.006 242.976C382.635 242.447 381.111 242.484 379.767 243.079C378.424 243.673 377.372 244.776 376.843 246.145C376.313 247.514 376.35 249.037 376.945 250.379V250.364Z" fill="#00B0FF"/>
<path d="M361.992 271.931C364.033 274.225 374.026 277.233 374.026 277.233C374.026 277.233 372.332 266.924 370.316 264.63C369.347 263.527 367.979 262.854 366.513 262.759C365.047 262.664 363.603 263.154 362.5 264.122C361.396 265.091 360.722 266.457 360.627 267.921C360.532 269.386 361.023 270.828 361.992 271.931Z" fill="#00B0FF"/>
<path d="M350.34 294.884C351.938 297.489 361.298 302.144 361.298 302.144C361.298 302.144 361.379 291.697 359.767 289.092C358.998 287.842 357.763 286.948 356.335 286.607C354.906 286.266 353.401 286.506 352.15 287.274C350.898 288.042 350.003 289.276 349.662 290.703C349.321 292.13 349.561 293.634 350.33 294.884H350.34Z" fill="#00B0FF"/>
<path opacity="0.1" d="M160.921 129.108H111.692V134.573H160.921V129.108Z" fill="black"/>
<path opacity="0.1" d="M231.799 177.151H202.408V182.616H231.799V177.151Z" fill="black"/>
<path opacity="0.1" d="M245.931 213.829H202.408V219.294H245.931V213.829Z" fill="black"/>
<path opacity="0.1" d="M160.921 148.37H111.692V153.835H160.921V148.37Z" fill="black"/>
<path opacity="0.1" d="M382.452 129.108H333.223V134.573H382.452V129.108Z" fill="black"/>
<path opacity="0.1" d="M382.452 148.37H333.223V153.835H382.452V148.37Z" fill="black"/>
<path d="M263.171 109.948L264.549 108.143C265.875 109.441 267.654 110.172 269.51 110.182C271.837 110.182 273.562 109.045 273.562 107.205C273.562 105.206 271.908 103.891 267.325 103.891V101.816C271.408 101.816 272.939 100.475 272.939 98.7058C272.939 97.1049 271.567 96.1056 269.53 96.1056C267.944 96.1523 266.428 96.7718 265.264 97.8493L263.799 96.1056C265.408 94.6684 267.484 93.8623 269.643 93.8368C273.169 93.8368 275.767 95.5295 275.767 98.4968C275.767 100.587 274.236 101.954 272.031 102.708V102.82C274.394 103.33 276.374 104.895 276.374 107.337C276.374 110.56 273.312 112.492 269.699 112.492C266.626 112.487 264.518 111.319 263.171 109.948Z" fill="#00B0FF"/>
<g opacity="0.8">
<path opacity="0.8" d="M376.47 62.9658C376.47 61.9869 376.557 60.7378 376.608 59.7589H376.481C375.919 60.6256 375.281 61.4872 374.71 62.3489L370.627 67.5799H381.467V69.6855H367.83V67.9011L375.97 57.1943H378.966V74.218H376.47V62.9658Z" fill="#00B0FF"/>
</g>
<g opacity="0.5">
<path opacity="0.5" d="M470.473 26.4508L471.397 25.1915C472.29 26.066 473.489 26.558 474.74 26.5629C476.383 26.5629 477.675 25.584 477.675 23.978C477.675 22.372 476.536 21.5053 474.847 21.5053C473.992 21.4982 473.153 21.7448 472.438 22.214L471.479 21.5971L471.867 15.5758H479.012V17.2328H473.551L473.25 20.5315C473.915 20.2299 474.637 20.0768 475.368 20.0828C477.71 20.0828 479.619 21.2861 479.619 23.9474C479.619 26.6088 477.384 28.1639 474.97 28.1639C474.144 28.1881 473.322 28.0492 472.551 27.7552C471.779 27.4612 471.073 27.0179 470.473 26.4508Z" fill="#00B0FF"/>
</g>
<path opacity="0.1" d="M359.624 144.449H177.176V326.713H359.624V144.449Z" fill="#00B0FF"/>
<path d="M365.748 135.782H183.3V318.046H365.748V135.782Z" fill="white"/>
<path opacity="0.5" d="M346.635 155.972H202.408V161.437H346.635V155.972Z" fill="#00B0FF"/>
<path opacity="0.1" d="M294.247 195.49H202.408V200.955H294.247V195.49Z" fill="black"/>
<path opacity="0.1" d="M291.516 232.173H202.408V237.639H291.516V232.173Z" fill="black"/>
<path opacity="0.1" d="M323.878 250.512H202.408V255.978H323.878V250.512Z" fill="black"/>
<path opacity="0.5" d="M320.26 195.974L319.632 195.326C319.604 195.301 319.568 195.286 319.53 195.286C319.494 195.286 319.459 195.301 319.433 195.326L315.08 199.711L313.492 198.125C313.464 198.101 313.428 198.086 313.39 198.085C313.354 198.086 313.32 198.1 313.293 198.125L312.655 198.763C312.642 198.776 312.631 198.792 312.624 198.809C312.616 198.827 312.613 198.846 312.613 198.865C312.613 198.884 312.616 198.903 312.624 198.92C312.631 198.938 312.642 198.953 312.655 198.967L314.656 200.96C314.765 201.078 314.914 201.151 315.075 201.164C315.232 201.151 315.379 201.08 315.488 200.965L320.26 196.178C320.283 196.149 320.296 196.113 320.296 196.076C320.296 196.039 320.283 196.003 320.26 195.974Z" fill="#3ACC6C"/>
<path opacity="0.5" d="M316.458 191.793C317.946 191.792 319.388 192.307 320.539 193.249C321.689 194.191 322.478 195.503 322.769 196.961C323.06 198.418 322.836 199.932 322.135 201.243C321.434 202.554 320.3 203.582 318.925 204.152C317.551 204.721 316.021 204.796 314.597 204.365C313.173 203.934 311.943 203.023 311.116 201.787C310.289 200.551 309.917 199.067 310.063 197.588C310.209 196.109 310.863 194.726 311.915 193.675C312.51 193.076 313.218 192.602 313.998 192.279C314.778 191.956 315.614 191.791 316.458 191.793ZM316.458 190.799C314.989 190.798 313.552 191.232 312.33 192.047C311.108 192.862 310.156 194.02 309.593 195.376C309.03 196.732 308.883 198.224 309.169 199.663C309.456 201.103 310.163 202.425 311.202 203.463C312.241 204.501 313.564 205.207 315.005 205.493C316.446 205.779 317.94 205.632 319.297 205.07C320.654 204.508 321.813 203.556 322.629 202.335C323.445 201.115 323.879 199.68 323.878 198.212C323.876 196.248 323.093 194.365 321.701 192.977C320.31 191.589 318.424 190.809 316.458 190.809V190.799Z" fill="#3ACC6C"/>
<path opacity="0.5" d="M320.26 232.652L319.632 232.01C319.619 231.996 319.603 231.985 319.585 231.978C319.568 231.971 319.549 231.968 319.53 231.969C319.512 231.968 319.494 231.971 319.477 231.978C319.46 231.986 319.445 231.996 319.433 232.01L315.08 236.389L313.492 234.809C313.479 234.795 313.464 234.783 313.446 234.776C313.429 234.768 313.41 234.763 313.39 234.763C313.372 234.763 313.354 234.768 313.337 234.776C313.32 234.784 313.305 234.795 313.293 234.809L312.655 235.441C312.642 235.454 312.631 235.47 312.624 235.488C312.616 235.505 312.613 235.524 312.613 235.543C312.613 235.562 312.616 235.581 312.624 235.598C312.631 235.616 312.642 235.632 312.655 235.645L314.656 237.644C314.765 237.762 314.914 237.835 315.075 237.848C315.231 237.832 315.378 237.762 315.488 237.649L320.26 232.856C320.283 232.827 320.296 232.791 320.296 232.754C320.296 232.717 320.283 232.681 320.26 232.652Z" fill="#3ACC6C"/>
<path opacity="0.5" d="M316.458 228.502C317.946 228.501 319.388 229.015 320.539 229.958C321.689 230.9 322.478 232.212 322.769 233.67C323.06 235.127 322.836 236.641 322.135 237.952C321.434 239.263 320.3 240.291 318.925 240.86C317.551 241.43 316.021 241.505 314.597 241.074C313.173 240.643 311.943 239.732 311.116 238.496C310.289 237.26 309.917 235.776 310.063 234.297C310.209 232.817 310.863 231.434 311.915 230.383C312.51 229.785 313.218 229.311 313.998 228.988C314.778 228.665 315.614 228.5 316.458 228.502ZM316.458 227.482C314.989 227.481 313.553 227.916 312.331 228.73C311.109 229.545 310.156 230.703 309.594 232.058C309.031 233.414 308.883 234.905 309.169 236.345C309.455 237.784 310.162 239.106 311.2 240.144C312.238 241.182 313.561 241.889 315.002 242.176C316.443 242.463 317.936 242.316 319.293 241.755C320.65 241.193 321.81 240.243 322.626 239.023C323.443 237.803 323.878 236.368 323.878 234.901C323.879 233.927 323.688 232.962 323.315 232.062C322.942 231.162 322.396 230.344 321.707 229.655C321.018 228.967 320.199 228.42 319.299 228.047C318.398 227.674 317.433 227.482 316.458 227.482Z" fill="#3ACC6C"/>
<path opacity="0.1" d="M261.564 405C281.691 405 298.008 402.265 298.008 398.892C298.008 395.519 281.691 392.784 261.564 392.784C241.436 392.784 225.119 395.519 225.119 398.892C225.119 402.265 241.436 405 261.564 405Z" fill="#00B0FF"/>
<path d="M66.8109 353.511C66.8109 353.511 68.7095 355.994 65.9331 359.746C63.1568 363.499 60.8602 366.66 61.789 369C61.789 369 65.9791 362.035 69.3934 361.938C72.8076 361.842 70.5621 357.702 66.8109 353.511Z" fill="#00B0FF"/>
<path opacity="0.1" d="M66.811 353.511C66.9763 353.751 67.1069 354.014 67.1989 354.291C70.5264 358.201 72.3025 361.847 69.1025 361.938C66.122 362.025 62.5444 367.348 61.687 368.694C61.7141 368.798 61.7482 368.9 61.7891 369C61.7891 369 65.9791 362.035 69.3934 361.938C72.8077 361.842 70.5621 357.702 66.811 353.511Z" fill="black"/>
<path d="M70.3425 356.677C70.3425 357.554 70.2455 358.262 70.123 358.262C70.0005 358.262 69.9036 357.554 69.9036 356.677C69.9036 355.8 70.026 356.213 70.1485 356.213C70.271 356.213 70.3425 355.805 70.3425 356.677Z" fill="#FFD037"/>
<path d="M71.5573 357.722C70.7867 358.14 70.1181 358.395 70.0619 358.288C70.0058 358.181 70.5723 357.778 71.348 357.335C72.1238 356.891 71.8125 357.222 71.8584 357.335C71.9043 357.447 72.3228 357.304 71.5573 357.722Z" fill="#FFD037"/>
<path d="M56.7672 353.511C56.7672 353.511 54.8635 355.994 57.645 359.746C60.4264 363.499 62.7128 366.66 61.7891 369C61.7891 369 57.594 362.035 54.1848 361.938C50.7756 361.842 53.0109 357.702 56.7672 353.511Z" fill="#00B0FF"/>
<path opacity="0.1" d="M56.7672 353.511C56.6018 353.751 56.4713 354.014 56.3793 354.291C53.0467 358.201 51.2757 361.847 54.4757 361.938C57.4562 362.025 61.0338 367.348 61.8912 368.694C61.8605 368.796 61.8299 368.898 61.7891 369C61.7891 369 57.5939 362.035 54.1848 361.938C50.7756 361.842 53.0109 357.702 56.7672 353.511Z" fill="black"/>
<path d="M53.2305 356.677C53.2305 357.554 53.3274 358.262 53.4499 358.262C53.5724 358.262 53.6694 357.554 53.6694 356.677C53.6694 355.8 53.5469 356.213 53.4244 356.213C53.3019 356.213 53.2305 355.805 53.2305 356.677Z" fill="#FFD037"/>
<path d="M52.0207 357.722C52.7862 358.14 53.4548 358.395 53.516 358.288C53.5773 358.181 53.0057 357.778 52.2299 357.335C51.4542 356.891 51.7655 357.222 51.7196 357.335C51.6736 357.447 51.25 357.304 52.0207 357.722Z" fill="#FFD037"/>
<path opacity="0.1" d="M61.7891 388.002C72.7676 388.002 81.6675 386.637 81.6675 384.953C81.6675 383.269 72.7676 381.904 61.7891 381.904C50.8105 381.904 41.9106 383.269 41.9106 384.953C41.9106 386.637 50.8105 388.002 61.7891 388.002Z" fill="#00B0FF"/>
<path d="M72.0217 365.65L71.9248 366.43L71.7921 367.521L71.7359 367.98L71.6032 369.076L71.5471 369.535L71.4093 370.626L69.8782 383.087C69.7455 384.198 67.9236 385.065 65.729 385.065H57.8338C55.6392 385.065 53.8224 384.198 53.6897 383.087L52.1586 370.626L52.0259 369.535L51.9698 369.076L51.8371 367.98L51.7809 367.521L51.6482 366.43L51.5462 365.65C51.4696 365.023 52.4546 364.493 53.6948 364.493H69.8629C71.1133 364.493 72.0983 365.023 72.0217 365.65Z" fill="#65617D"/>
<path d="M71.9247 366.425L71.792 367.521H51.786L51.6482 366.425H71.9247Z" fill="#9D9CB5"/>
<path d="M71.7358 367.98L71.6031 369.076H51.9747L51.842 367.98H71.7358Z" fill="#9D9CB5"/>
<path d="M71.5471 369.53L71.4093 370.626H52.1637L52.031 369.53H71.5471Z" fill="#9D9CB5"/>
<path opacity="0.1" d="M301.54 235.441C301.198 234.743 298.478 225.754 298.478 225.754L293.236 212.462C293.236 212.462 290.057 194.97 285.31 199.334C280.564 203.698 287.862 214.17 287.862 214.17C287.862 214.17 290.858 221.818 290.705 223.348C290.552 224.877 292.374 230.485 292.374 230.485L291.782 233.708C291.011 233.657 290.511 233.657 290.511 233.657C290.511 233.657 290.042 234.33 289.592 234.376C289.516 234.386 289.439 234.375 289.368 234.345C288.857 234.115 287.168 234.161 286.306 234.161C285.505 234.053 284.729 233.805 284.014 233.427C283.718 232.836 282.044 232.484 280.559 232.285C279.431 229.481 277.844 226.753 277.624 223.827C277.516 223.03 277.674 222.22 278.074 221.522C278.173 221.373 278.285 221.233 278.41 221.104C278.824 220.686 279.329 220.319 279.788 219.932C280.018 219.738 280.227 219.539 280.426 219.335C284.32 215.562 283.703 209.719 280.171 205.676C276.088 201.001 257.675 190.942 252.101 199.558C251.326 200.761 251.3 202.153 251.081 203.489C250.525 206.756 248.991 209.778 246.681 212.156C244.834 214.119 242.41 215.929 241.348 218.152L241.313 218.071C241.06 218.553 240.874 219.068 240.761 219.6C240.225 222.307 242.053 224.913 243.012 227.549C243.338 228.444 243.574 229.37 243.716 230.312L243.778 229.731C244.013 231.077 244.093 232.445 244.017 233.81C237.332 235.176 237.327 246.688 237.327 246.688C237.327 246.688 236.505 251.277 236.643 252.913C236.781 254.55 236.781 258.129 236.781 259.001C236.781 259.873 235.954 265.226 235.862 265.869C235.745 266.577 234.489 269.973 237.521 270.738C237.73 270.794 237.954 270.84 238.184 270.88C238.312 273.628 238.551 279.395 238.342 280.669C238.342 280.669 239.445 288.409 240.358 290.356C240.945 291.508 241.628 292.608 242.4 293.645C242.335 294.115 242.177 294.567 241.935 294.976C241.471 295.654 241.711 296.209 242.491 296.449C242.468 296.684 242.437 296.949 242.4 297.244C242.068 300.232 241.568 306.162 242.4 309.17C243.568 313.289 243.635 314.661 243.635 314.661C243.634 315.331 243.799 315.991 244.114 316.583C244.625 317.271 245.492 323.654 245.492 324.684C245.492 325.714 247.83 334.983 247.141 337.181C246.452 339.378 247.003 342.468 247.003 342.468C247.003 342.468 246.59 347.892 246.11 349.06C245.63 350.227 245.421 369.041 246.176 373.915C246.932 378.789 247.416 382.842 247.416 382.842C247.416 382.842 246.906 387.303 247.345 387.941C247.784 388.578 248.514 392.269 247.962 392.473C247.411 392.677 247.141 394.191 247.141 394.191C247.431 394.634 247.745 395.061 248.08 395.471C247.867 395.396 247.659 395.308 247.457 395.206C247.677 395.517 248.003 395.945 248.401 396.414L248.029 401.35C248.013 401.543 248.065 401.736 248.177 401.894C248.289 402.053 248.454 402.167 248.641 402.216C249.848 402.547 251.122 402.542 252.325 402.201C253.529 401.86 254.616 401.197 255.47 400.284C258.905 396.781 260.063 397.266 260.696 395.135C260.757 394.905 260.818 394.686 260.864 394.472C260.959 394.061 260.935 393.632 260.795 393.234C260.656 392.837 260.406 392.487 260.075 392.225C259.744 391.964 259.346 391.801 258.927 391.757C258.507 391.712 258.084 391.787 257.705 391.974C257.925 390.444 258.098 388.767 257.93 387.803C257.588 385.815 257.654 380.594 257.654 380.594L257.174 355.611C257.174 355.611 258.068 350.671 259.098 348.749C260.129 346.827 259.992 340.082 259.992 340.082L261.16 317.97L262.324 307.263C262.324 307.263 263.421 303.556 264.794 307.676C264.794 307.676 264.039 315.981 264.386 317.975C264.733 319.968 265.207 329.645 264.866 331.776C264.524 333.907 263.008 345.578 263.972 348.53C264.937 351.482 265.963 355.051 265.759 356.218C265.555 357.386 264.866 382.73 264.866 382.73C264.866 382.73 266.718 387.604 265.345 389.185C263.972 390.765 265.279 397.082 265.279 397.082C265.279 397.082 265.442 397.199 265.728 397.368L265.687 397.878L265.259 403.557C265.243 403.75 265.296 403.943 265.408 404.101C265.52 404.259 265.684 404.373 265.871 404.424C267.077 404.753 268.351 404.747 269.554 404.407C270.758 404.066 271.845 403.404 272.7 402.492C276.134 398.989 277.293 399.468 277.926 397.342C277.987 397.113 278.048 396.888 278.099 396.674C278.203 396.22 278.161 395.744 277.981 395.314C277.8 394.884 277.49 394.521 277.092 394.277C276.695 394.032 276.231 393.918 275.765 393.95C275.3 393.983 274.856 394.16 274.496 394.456C274.473 394.481 274.447 394.503 274.419 394.523C274.333 394.599 274.241 394.665 274.149 394.732L274.016 394.818C274.358 393.248 274.858 390.571 274.624 389.307C274.282 387.451 274.966 381.822 274.966 381.822C274.966 381.822 276.961 375.093 277.007 372.416C277.053 369.739 277.558 351.002 277.558 351.002C277.558 351.002 277.492 342.284 277.767 340.158C278.043 338.032 280.238 319.627 282.437 314.156C284.126 309.945 284.882 299.212 284.433 293.762C284.407 293.487 284.382 293.252 284.356 292.987C287.046 290.968 287.332 287.644 287.332 287.644C287.332 287.644 284.856 282.882 282.473 280.868C280.09 278.854 279.538 275.377 279.63 273.909C279.672 273.013 279.379 272.133 278.809 271.441C278.809 271.441 277.706 267.872 276.971 267.505C276.911 267.475 276.857 267.434 276.813 267.383C276.303 266.842 276.696 265.308 276.696 265.308V265.262C276.777 264.905 277.313 262.6 277.14 262.009C276.966 261.418 277.232 258.348 277.232 258.348C277.232 258.348 278.977 253.133 278.701 249.013C278.426 244.894 282.274 245.256 282.274 245.256L294.16 245.133H295.513C296.083 244.647 296.597 244.098 297.044 243.497C297.502 243.583 297.974 243.57 298.427 243.459C298.881 243.348 299.305 243.142 299.672 242.854C302.193 240.55 301.882 236.15 301.54 235.441ZM246.263 271.13L246.35 269.04L246.814 269.437C246.956 269.986 246.956 270.561 246.814 271.11C246.742 271.368 246.613 271.606 246.436 271.807C246.26 272.008 246.04 272.167 245.793 272.272C245.734 272.301 245.678 272.335 245.625 272.374L245.508 271.181C245.993 271.151 246.263 271.125 246.263 271.125V271.13Z" fill="black"/>
<path d="M290.853 239.494C290.853 239.494 297.62 243.843 300.182 241.534C302.744 239.224 302.428 234.768 302.081 234.065C301.734 233.361 298.978 224.311 298.978 224.311L293.655 210.912C293.655 210.912 290.419 193.277 285.591 197.657C280.763 202.036 288.194 212.61 288.194 212.61C288.194 212.61 291.256 220.324 291.082 221.869C290.909 223.414 292.777 229.073 292.777 229.073L290.853 239.494Z" fill="url(#paint0_linear)"/>
<path d="M278.232 396.613C278.181 396.832 278.125 397.057 278.053 397.286C277.426 399.433 276.236 398.948 272.746 402.476C271.874 403.399 270.768 404.067 269.545 404.41C268.323 404.753 267.03 404.758 265.805 404.424C265.615 404.374 265.449 404.26 265.335 404.101C265.222 403.941 265.167 403.747 265.182 403.552L265.621 397.827L265.83 395.068C265.83 395.068 271.388 396.628 274.22 394.655C274.312 394.589 274.404 394.523 274.491 394.446L274.573 394.38C274.937 394.082 275.385 393.904 275.855 393.872C276.325 393.839 276.794 393.954 277.196 394.199C277.598 394.444 277.913 394.809 278.099 395.241C278.285 395.674 278.331 396.153 278.232 396.613Z" fill="url(#paint1_linear)"/>
<path d="M260.793 394.451C260.747 394.671 260.686 394.895 260.619 395.124C259.991 397.271 258.802 396.786 255.311 400.315C254.439 401.236 253.333 401.904 252.111 402.248C250.889 402.592 249.596 402.598 248.371 402.267C248.18 402.218 248.012 402.103 247.898 401.943C247.784 401.782 247.731 401.586 247.748 401.39L248.182 395.665L248.396 392.907C248.396 392.907 253.954 394.467 256.781 392.494C256.878 392.427 256.965 392.361 257.057 392.285L257.139 392.218C257.502 391.919 257.951 391.74 258.421 391.707C258.891 391.674 259.36 391.788 259.762 392.034C260.164 392.28 260.48 392.645 260.664 393.078C260.849 393.511 260.894 393.991 260.793 394.451Z" fill="url(#paint2_linear)"/>
<g opacity="0.1">
<path opacity="0.1" d="M255.036 395.313L255.266 398.285C252.071 401.446 248.274 396.756 247.151 395.196C250.075 396.695 255.036 395.313 255.036 395.313Z" fill="url(#paint3_linear)"/>
</g>
<g opacity="0.1">
<path opacity="0.1" d="M273.792 396.521L274.215 396.246C271.296 400.641 266.968 398.612 265.621 397.826L265.83 395.068C265.83 395.068 271.388 396.628 274.22 394.655C273.996 395.731 273.792 396.521 273.792 396.521Z" fill="url(#paint4_linear)"/>
</g>
<path d="M282.667 313.386C280.431 318.923 278.196 337.476 277.915 339.623C277.635 341.769 277.706 350.559 277.706 350.559L277.124 372.156C277.058 374.858 275.032 381.639 275.032 381.639C275.032 381.639 274.333 387.319 274.68 389.185C275.027 391.051 273.771 395.971 273.771 395.971L274.195 395.695C270.699 400.952 265.182 397.006 265.182 397.006C265.182 397.006 263.855 390.638 265.248 389.047C266.642 387.456 264.763 382.541 264.763 382.541C264.763 382.541 265.458 356.998 265.672 355.82C265.886 354.643 264.876 351.043 263.855 348.066C262.834 345.088 264.411 333.321 264.763 331.175C265.116 329.028 264.621 319.27 264.253 317.261C263.886 315.252 264.672 306.875 264.672 306.875C263.273 302.725 262.155 306.462 262.155 306.462L261.038 317.332L259.889 339.648C259.889 339.648 260.032 346.429 258.981 348.367C257.93 350.304 257.026 355.29 257.026 355.29L257.537 380.487C257.537 380.487 257.465 385.748 257.817 387.757C258.17 389.766 257.047 394.956 257.047 394.956C253.137 404.093 246.84 394.196 246.84 394.196C246.84 394.196 247.115 392.667 247.677 392.463C248.238 392.259 247.467 388.517 247.049 387.874C246.63 387.232 247.115 382.776 247.115 382.776C247.115 382.776 246.63 378.697 245.86 373.772C245.089 368.847 245.303 349.891 245.788 348.713C246.273 347.536 246.697 342.085 246.697 342.085C246.697 342.085 246.14 338.97 246.84 336.752C247.539 334.534 245.161 325.194 245.161 324.154C245.161 323.114 244.252 316.68 243.762 315.997C243.433 315.403 243.258 314.737 243.252 314.059C243.252 314.059 243.18 312.672 241.991 308.522C241.124 305.463 241.634 299.508 241.991 296.5C242.114 295.384 242.216 294.675 242.216 294.675C242.216 294.675 282.315 288.236 283.922 289.694C284.3 290.03 284.55 291.223 284.693 292.885C285.147 298.32 284.376 309.144 282.667 313.386Z" fill="url(#paint5_linear)"/>
<g opacity="0.1">
<path opacity="0.1" d="M267.504 344.512C267.693 344.512 272.097 344.884 273.746 344.558C275.394 344.232 267.504 344.512 267.504 344.512Z" fill="url(#paint6_linear)"/>
</g>
<g opacity="0.1">
<path opacity="0.1" d="M267.831 347.097C267.831 347.097 273.955 348.157 274.261 347.607C274.567 347.056 267.831 347.097 267.831 347.097Z" fill="url(#paint7_linear)"/>
</g>
<g opacity="0.1">
<path opacity="0.1" d="M249.157 345.991C249.157 345.991 252.321 346.128 254.046 346.913C255.771 347.699 249.157 345.991 249.157 345.991Z" fill="url(#paint8_linear)"/>
</g>
<path d="M237.653 268.367C237.653 268.367 238.163 278.013 237.888 279.716C237.888 279.716 239.006 287.517 239.929 289.5C240.763 291.082 241.745 292.581 242.864 293.976L245.61 274.826L244.972 268.27L237.653 268.367Z" fill="url(#paint9_linear)"/>
<path d="M266.529 224.428C272.471 224.428 277.288 219.655 277.288 213.768C277.288 207.88 272.471 203.107 266.529 203.107C260.588 203.107 255.771 207.88 255.771 213.768C255.771 219.655 260.588 224.428 266.529 224.428Z" fill="url(#paint10_linear)"/>
<path d="M260.941 218.754C260.941 218.754 257.588 225.259 254.235 228.308C250.882 231.357 274.353 234.814 274.91 234.814C275.466 234.814 270.719 220.972 271.556 219.31C272.393 217.647 260.941 218.754 260.941 218.754Z" fill="url(#paint11_linear)"/>
<g opacity="0.1">
<path opacity="0.1" d="M284.693 292.834C284.166 293.234 283.585 293.557 282.968 293.793C278.686 295.455 274.026 297.764 270.857 296.852C267.688 295.939 260.987 296.852 260.987 296.852C260.987 296.852 247.478 295.74 244.778 296.388C243.872 296.663 242.909 296.687 241.991 296.459C242.114 295.343 242.216 294.634 242.216 294.634C242.216 294.634 282.315 288.195 283.922 289.653C284.3 289.979 284.55 291.157 284.693 292.834Z" fill="url(#paint12_linear)"/>
</g>
<path d="M287.627 286.686C287.627 286.686 287.255 291.274 282.968 292.962C278.681 294.649 274.026 296.933 270.857 296.021C267.688 295.108 260.987 296.021 260.987 296.021C260.987 296.021 247.478 294.909 244.778 295.557C242.078 296.204 240.695 295.373 241.517 294.17C242.338 292.967 242.267 289.005 242.267 287.343C242.267 285.681 241.333 278.941 242.17 277.743C243.007 276.545 243.752 271.931 245.431 271.191C245.682 271.087 245.907 270.927 246.088 270.724C246.269 270.521 246.402 270.28 246.477 270.019C246.624 269.466 246.624 268.884 246.477 268.331C246.477 268.331 246.197 268.102 245.804 267.755C244.819 266.883 243.145 265.262 243.681 264.732C244.426 263.992 243.681 259.19 243.681 259.19C243.681 259.19 241.91 255.498 242.563 254.117C243.216 252.735 236.883 245.449 236.883 245.449C236.883 245.449 236.883 232.897 244.538 232.341C244.538 232.341 249.938 232.53 250.591 230.128C251.244 227.727 255.526 226.34 255.526 226.34L265.304 228.466C265.304 228.466 273.98 230.312 275.552 229.206C277.124 228.099 278.349 230.679 278.349 230.679C278.349 230.679 283.749 230.96 284.31 232.066C284.872 233.172 282.539 243.971 282.539 243.971C282.539 243.971 278.625 243.604 278.905 247.759C279.186 251.914 277.415 257.171 277.415 257.171C277.415 257.171 277.134 260.23 277.323 260.862C277.512 261.494 276.956 263.778 276.869 264.14V264.186C276.869 264.186 276.481 265.716 276.986 266.282C277.035 266.329 277.09 266.371 277.15 266.404C277.895 266.771 279.013 270.37 279.013 270.37C279.595 271.067 279.895 271.957 279.855 272.864C279.763 274.342 280.319 277.845 282.738 279.879C285.157 281.913 287.627 286.686 287.627 286.686Z" fill="url(#paint13_linear)"/>
<path d="M246.079 265.318V265.711L245.906 270.029C245.906 270.029 240.18 270.488 237.056 269.703C233.933 268.918 235.255 265.507 235.377 264.793C235.469 264.145 236.306 258.746 236.306 257.869C236.306 256.992 236.306 253.393 236.168 251.751C236.03 250.109 236.867 245.475 236.867 245.475L237.47 244.736L244.038 247.229L246.079 265.318Z" fill="url(#paint14_linear)"/>
<g opacity="0.1">
<path opacity="0.1" d="M246.069 265.721L245.896 270.039C245.896 270.039 240.169 270.498 237.046 269.713C233.923 268.928 235.244 265.517 235.367 264.803L246.069 265.721Z" fill="url(#paint15_linear)"/>
</g>
<g opacity="0.1">
<path opacity="0.1" d="M246.503 270.008C246.649 269.455 246.649 268.874 246.503 268.321C246.503 268.321 246.222 268.091 245.829 267.745C250.764 267.067 270.296 264.405 276.879 264.12V264.166C276.879 264.166 276.491 265.695 276.997 266.261L246.503 270.008Z" fill="url(#paint16_linear)"/>
</g>
<g opacity="0.1">
<path opacity="0.1" d="M277.568 273.368C277.568 273.368 278.778 280.154 274.261 282.546C274.261 282.546 276.823 279.165 277.568 273.368Z" fill="url(#paint17_linear)"/>
</g>
<g opacity="0.1">
<path opacity="0.1" d="M247.993 282.719C247.993 282.719 258.889 280.873 261.033 282.301C263.176 283.728 247.993 282.719 247.993 282.719Z" fill="url(#paint18_linear)"/>
</g>
<g opacity="0.1">
<path opacity="0.1" d="M273.792 240.677C273.792 240.677 272.118 247.504 273.373 249.074C274.629 250.645 273.792 240.677 273.792 240.677Z" fill="url(#paint19_linear)"/>
</g>
<g opacity="0.1">
<path opacity="0.1" d="M242.216 235.089C242.216 235.089 243.747 237.638 242.823 240.259C241.899 242.88 242.216 235.089 242.216 235.089Z" fill="url(#paint20_linear)"/>
</g>
<path d="M239.052 257.334C239.052 257.334 241.006 258.491 240.353 260.291C239.7 262.091 239.052 257.334 239.052 257.334Z" fill="url(#paint21_linear)"/>
<g opacity="0.1">
<path opacity="0.1" d="M238.847 252.072C238.847 252.072 240.664 253.046 240.889 254.473C241.113 255.901 238.847 252.072 238.847 252.072Z" fill="url(#paint22_linear)"/>
</g>
<g opacity="0.1">
<path opacity="0.1" d="M265.784 307.268C265.784 307.268 277.196 308.425 279.477 305.738C279.477 305.749 269.183 307.778 265.784 307.268Z" fill="url(#paint23_linear)"/>
</g>
<g opacity="0.1">
<path opacity="0.1" d="M246.084 306.625C246.084 306.625 258.333 309.486 260.752 307.222C260.752 307.222 250.228 308.007 246.084 306.625Z" fill="url(#paint24_linear)"/>
</g>
<g opacity="0.1">
<path opacity="0.1" d="M266.667 311.01C266.667 311.01 271.771 311.01 274.164 311.148C276.558 311.286 266.667 311.01 266.667 311.01Z" fill="url(#paint25_linear)"/>
</g>
<g opacity="0.1">
<path opacity="0.1" d="M246.921 313.177C246.921 313.177 249.437 315.991 252.275 315.487C255.113 314.982 246.921 313.177 246.921 313.177Z" fill="url(#paint26_linear)"/>
</g>
<path d="M251.862 197.911C251.071 199.125 251.045 200.527 250.841 201.873C250.279 205.181 248.719 208.239 246.37 210.637C244.135 212.993 241.068 215.124 240.491 217.999C239.945 220.732 241.803 223.358 242.777 226.014C245.329 233.024 241.757 240.371 240.71 247.606C240.425 249.605 240.772 252.159 243.262 252.822C244.038 253.031 244.926 253.005 245.62 253.331C246.559 253.775 246.845 254.698 247.018 255.529C247.64 258.499 247.855 261.54 247.656 264.568C247.544 266.271 247.422 268.224 249.039 269.392C249.865 269.9 250.773 270.259 251.724 270.452C254.276 271.135 257.578 271.681 259.298 270.085C260.022 269.417 260.318 268.469 261.191 267.939C262.538 267.148 264.452 267.684 266.152 267.765C267.758 267.834 269.353 267.472 270.772 266.717C272.19 265.962 273.381 264.842 274.22 263.472C275.593 261.02 275.476 258.226 274.966 255.585C274.455 252.944 273.577 250.334 273.511 247.662C273.432 246.726 273.642 245.788 274.113 244.975C275.134 243.384 277.568 242.66 279.217 241.406C282.31 239.061 282.279 235.217 281.177 232C280.074 228.782 278.033 225.708 277.783 222.384C277.673 221.58 277.834 220.761 278.242 220.059C278.782 219.392 279.415 218.805 280.12 218.315C284.637 214.537 284.106 208.328 280.37 204.081C276.226 199.354 257.501 189.208 251.862 197.911Z" fill="url(#paint27_linear)"/>
<g opacity="0.1">
<path opacity="0.1" d="M243.349 228.915C243.793 226.125 243.55 223.269 242.64 220.594C242.129 219.254 241.43 217.918 240.915 216.577C240.655 217.057 240.466 217.572 240.353 218.106C239.802 220.834 241.665 223.46 242.64 226.121C242.968 227.027 243.206 227.963 243.349 228.915Z" fill="url(#paint28_linear)"/>
<path opacity="0.1" d="M247.524 259.149C247.723 256.12 247.507 253.079 246.881 250.109C246.707 249.278 246.421 248.355 245.488 247.912C244.788 247.58 243.9 247.606 243.125 247.402C242.651 247.288 242.209 247.069 241.832 246.76C241.455 246.45 241.154 246.06 240.95 245.618C240.813 246.321 240.685 247.025 240.583 247.723C240.292 249.722 240.639 252.276 243.135 252.939C243.911 253.148 244.799 253.122 245.498 253.449C246.432 253.892 246.717 254.815 246.891 255.646C247.18 257.024 247.381 258.419 247.493 259.822C247.483 259.603 247.524 259.373 247.524 259.149Z" fill="url(#paint29_linear)"/>
<path opacity="0.1" d="M274.062 258.073C273.224 259.442 272.034 260.563 270.616 261.317C269.198 262.072 267.604 262.434 265.999 262.366C264.299 262.284 262.385 261.749 261.038 262.539C260.14 263.049 259.864 264.018 259.144 264.686C257.425 266.282 254.123 265.736 251.571 265.053C250.62 264.861 249.711 264.502 248.886 263.992C248.182 263.484 247.707 262.718 247.564 261.861C247.564 262.81 247.564 263.763 247.503 264.711C247.391 266.409 247.268 268.362 248.886 269.529C249.711 270.039 250.62 270.398 251.571 270.59C254.123 271.278 257.425 271.819 259.144 270.223C259.864 269.555 260.165 268.612 261.038 268.081C262.385 267.286 264.299 267.821 265.999 267.908C267.605 267.977 269.2 267.615 270.618 266.859C272.036 266.103 273.225 264.981 274.062 263.61C275.384 261.255 275.328 258.583 274.869 256.034C274.692 256.746 274.421 257.432 274.062 258.073Z" fill="url(#paint30_linear)"/>
<path opacity="0.1" d="M279.977 212.901C279.27 213.39 278.636 213.977 278.094 214.645C277.689 215.348 277.529 216.166 277.64 216.969C277.727 217.98 277.941 218.975 278.278 219.932C278.799 219.384 279.368 218.884 279.977 218.438C283.039 215.889 283.774 212.218 282.784 208.797C282.26 210.404 281.286 211.829 279.977 212.901Z" fill="url(#paint31_linear)"/>
<path opacity="0.1" d="M279.074 235.992C277.421 237.241 274.991 237.965 273.97 239.561C273.497 240.373 273.287 241.311 273.368 242.247C273.407 243.328 273.54 244.403 273.766 245.46C273.827 245.335 273.896 245.214 273.97 245.098C274.991 243.512 277.421 242.783 279.074 241.529C281.896 239.387 282.136 235.997 281.299 232.973C280.872 234.177 280.098 235.227 279.074 235.992Z" fill="url(#paint32_linear)"/>
</g>
<path d="M300.341 237.124C298.432 241.921 295.962 243.813 295.962 243.813H294.589L282.504 243.935L281.105 240.152L283.065 231.995L284.269 232.071C284.996 232.452 285.784 232.702 286.597 232.81C287.48 232.81 289.205 232.764 289.715 232.994C289.787 233.026 289.867 233.037 289.945 233.024C290.399 232.979 290.884 232.3 290.884 232.3C290.884 232.3 302.249 232.321 300.341 237.124Z" fill="url(#paint33_linear)"/>
<g opacity="0.1">
<path opacity="0.1" d="M300.341 237.123C298.432 241.921 295.962 243.813 295.962 243.813H294.589C295.303 241.911 296.814 238.005 297.406 237.108C297.998 236.211 292.91 234.131 289.95 232.984C290.404 232.938 290.889 232.26 290.889 232.26C290.889 232.26 302.249 232.321 300.341 237.123Z" fill="url(#paint34_linear)"/>
</g>
<path d="M290.496 240.84C290.496 240.84 297.13 245.154 299.682 242.849C302.234 240.545 301.892 236.14 301.55 235.441C301.208 234.743 298.488 225.754 298.488 225.754L293.247 212.462C293.247 212.462 290.067 194.97 285.321 199.334C280.574 203.698 287.872 214.17 287.872 214.17C287.872 214.17 290.868 221.818 290.715 223.348C290.562 224.877 292.384 230.485 292.384 230.485L290.496 240.84Z" fill="#EFB7B9"/>
<path d="M278.079 396.679C278.028 396.893 277.966 397.118 277.905 397.347C277.283 399.473 276.114 398.994 272.679 402.497C271.825 403.409 270.737 404.071 269.534 404.412C268.331 404.752 267.057 404.758 265.851 404.429C265.663 404.378 265.5 404.264 265.388 404.106C265.276 403.948 265.223 403.755 265.238 403.562L265.667 397.883L265.876 395.15C265.876 395.15 271.347 396.679 274.129 394.737C274.22 394.671 274.312 394.604 274.399 394.528C274.427 394.508 274.452 394.486 274.476 394.462C274.835 394.165 275.279 393.988 275.745 393.955C276.21 393.923 276.674 394.037 277.072 394.282C277.469 394.527 277.78 394.889 277.96 395.319C278.141 395.749 278.182 396.225 278.079 396.679Z" fill="#00B0FF"/>
<path d="M260.905 394.538C260.859 394.752 260.798 394.971 260.737 395.201C260.114 397.332 258.945 396.848 255.511 400.35C254.657 401.264 253.57 401.927 252.366 402.267C251.162 402.608 249.889 402.613 248.682 402.283C248.494 402.233 248.33 402.119 248.218 401.96C248.106 401.802 248.054 401.609 248.07 401.416L248.498 395.736L248.708 393.003C248.708 393.003 254.179 394.533 256.96 392.59C257.054 392.527 257.144 392.459 257.231 392.386L257.307 392.315C257.668 392.019 258.111 391.844 258.577 391.813C259.042 391.781 259.505 391.896 259.902 392.141C260.298 392.386 260.608 392.749 260.788 393.179C260.968 393.609 261.009 394.084 260.905 394.538Z" fill="#00B0FF"/>
<path opacity="0.1" d="M255.255 395.389L255.48 398.341C252.341 401.472 248.6 396.812 247.498 395.282C250.387 396.751 255.255 395.389 255.255 395.389Z" fill="black"/>
<path opacity="0.1" d="M273.71 396.588L274.123 396.317C271.255 400.671 266.978 398.663 265.667 397.883L265.876 395.15C265.876 395.15 271.347 396.679 274.128 394.737C273.909 395.802 273.71 396.588 273.71 396.588Z" fill="black"/>
<path d="M282.437 314.156C280.237 319.647 278.038 338.047 277.767 340.158C277.497 342.269 277.558 351.002 277.558 351.002L277.007 372.416C276.94 375.093 274.965 381.822 274.965 381.822C274.965 381.822 274.281 387.431 274.623 389.307C274.965 391.183 273.73 396.037 273.73 396.037L274.144 395.762C270.709 400.977 265.279 397.067 265.279 397.067C265.279 397.067 263.972 390.75 265.345 389.169C266.718 387.589 264.865 382.715 264.865 382.715C264.865 382.715 265.554 357.381 265.758 356.203C265.963 355.025 264.932 351.466 263.972 348.514C263.013 345.562 264.523 333.887 264.865 331.761C265.207 329.635 264.728 319.948 264.386 317.959C264.044 315.971 264.794 307.661 264.794 307.661C263.421 303.541 262.324 307.248 262.324 307.248L261.221 318.026L260.032 340.158C260.032 340.158 260.17 346.883 259.139 348.825C258.108 350.768 257.22 355.667 257.22 355.667L257.7 380.65C257.7 380.65 257.634 385.871 257.975 387.859C258.317 389.847 257.22 394.997 257.22 394.997C253.372 404.057 247.187 394.242 247.187 394.242C247.187 394.242 247.462 392.713 248.008 392.524C248.554 392.336 247.804 388.609 247.391 387.992C246.977 387.375 247.462 382.893 247.462 382.893C247.462 382.893 246.952 378.84 246.222 373.966C245.492 369.092 245.676 350.278 246.156 349.111C246.635 347.943 247.049 342.519 247.049 342.519C247.049 342.519 246.498 339.429 247.187 337.232C247.876 335.034 245.538 325.765 245.538 324.735C245.538 323.705 244.645 317.322 244.16 316.634C243.845 316.042 243.68 315.382 243.68 314.712C243.68 314.712 243.614 313.34 242.445 309.221C241.593 306.213 242.093 300.283 242.445 297.295C242.568 296.189 242.67 295.485 242.67 295.485C242.67 295.485 282.121 289.102 283.703 290.545C284.07 290.882 284.32 292.075 284.458 293.711C284.882 299.187 284.126 309.919 282.437 314.156Z" fill="#444053"/>
<path opacity="0.1" d="M267.524 345.002C267.708 345.002 272.061 345.369 273.649 345.047C275.236 344.726 267.524 345.002 267.524 345.002Z" fill="black"/>
<path opacity="0.1" d="M267.846 347.566C267.846 347.566 273.848 348.621 274.169 348.076C274.491 347.53 267.846 347.566 267.846 347.566Z" fill="black"/>
<path opacity="0.1" d="M249.473 346.47C249.473 346.47 252.586 346.607 254.281 347.382C255.975 348.157 249.473 346.47 249.473 346.47Z" fill="black"/>
<path d="M238.153 269.478C238.153 269.478 238.664 279.043 238.383 280.736C238.383 280.736 239.485 288.475 240.399 290.423C241.22 291.991 242.187 293.477 243.288 294.863L245.992 275.887L245.354 269.386L238.153 269.478Z" fill="#EFB7B9"/>
<path d="M266.565 225.902C272.411 225.902 277.15 221.168 277.15 215.328C277.15 209.488 272.411 204.754 266.565 204.754C260.719 204.754 255.98 209.488 255.98 215.328C255.98 221.168 260.719 225.902 266.565 225.902Z" fill="#EFB7B9"/>
<path d="M261.063 220.273C261.063 220.273 257.767 226.723 254.464 229.746C251.162 232.769 274.261 236.201 274.813 236.201C275.364 236.201 270.689 222.465 271.51 220.819C272.332 219.172 261.063 220.273 261.063 220.273Z" fill="#EFB7B9"/>
<path opacity="0.1" d="M284.433 293.762C283.916 294.158 283.345 294.479 282.738 294.716C278.523 296.362 273.94 298.652 270.821 297.734C267.703 296.816 261.125 297.734 261.125 297.734C261.125 297.734 247.855 296.638 245.181 297.275C244.283 297.545 243.328 297.564 242.42 297.331C242.542 296.225 242.644 295.521 242.644 295.521C242.644 295.521 282.095 289.138 283.677 290.581C284.045 290.917 284.295 292.085 284.433 293.762Z" fill="black"/>
<path d="M287.332 287.644C287.332 287.644 286.964 292.233 282.738 293.869C278.513 295.506 273.94 297.805 270.821 296.893C267.703 295.98 261.125 296.893 261.125 296.893C261.125 296.893 247.855 295.791 245.181 296.434C242.507 297.076 241.149 296.25 241.971 295.057C242.793 293.864 242.706 289.959 242.706 288.286C242.706 286.614 241.787 279.956 242.614 278.762C243.441 277.569 244.145 272.996 245.824 272.262C246.071 272.157 246.29 271.998 246.467 271.797C246.644 271.596 246.773 271.357 246.845 271.1C246.987 270.551 246.987 269.976 246.845 269.427C246.845 269.427 246.569 269.198 246.181 268.856C245.212 267.989 243.568 266.383 244.099 265.858C244.829 265.124 244.099 260.362 244.099 260.362C244.099 260.362 242.354 256.702 242.997 255.33C243.64 253.959 237.383 246.724 237.383 246.724C237.383 246.724 237.383 234.273 244.9 233.723C244.9 233.723 250.213 233.906 250.856 231.525C251.499 229.144 255.715 227.773 255.715 227.773L265.335 229.879C265.335 229.879 273.858 231.709 275.415 230.613C276.971 229.517 278.145 232.071 278.145 232.071C278.145 232.071 283.458 232.346 284.009 233.442C284.56 234.539 282.269 245.25 282.269 245.25C282.269 245.25 278.421 244.888 278.696 249.008C278.972 253.127 277.226 258.343 277.226 258.343C277.226 258.343 276.951 261.367 277.135 262.004C277.318 262.641 276.772 264.9 276.691 265.257V265.303C276.691 265.303 276.313 266.832 276.808 267.378C276.852 267.428 276.906 267.47 276.966 267.5C277.701 267.862 278.803 271.436 278.803 271.436C279.374 272.128 279.667 273.008 279.625 273.904C279.533 275.372 280.084 278.849 282.468 280.863C284.851 282.877 287.332 287.644 287.332 287.644Z" fill="#00B0FF"/>
<path d="M246.447 266.455V266.842L246.278 271.125C246.278 271.125 240.664 271.584 237.602 270.804C234.54 270.024 235.826 266.643 235.944 265.935C236.036 265.292 236.862 259.934 236.862 259.067C236.862 258.2 236.862 254.626 236.725 252.98C236.587 251.333 237.408 246.754 237.408 246.754L238.005 246.02L244.467 248.493L246.447 266.455Z" fill="#00B0FF"/>
<path opacity="0.1" d="M246.431 266.842L246.263 271.125C246.263 271.125 240.649 271.584 237.587 270.804C234.525 270.024 235.811 266.643 235.928 265.935L246.431 266.842Z" fill="black"/>
<path opacity="0.1" d="M246.84 271.105C246.981 270.556 246.981 269.981 246.84 269.432C246.84 269.432 246.564 269.203 246.176 268.861C251.035 268.188 270.25 265.553 276.726 265.292V265.338C276.726 265.338 276.349 266.868 276.844 267.413L246.84 271.105Z" fill="black"/>
<path opacity="0.1" d="M277.42 274.419C277.42 274.419 278.615 281.149 274.169 283.53C274.169 283.53 276.691 280.19 277.42 274.419Z" fill="black"/>
<path opacity="0.1" d="M248.325 283.713C248.325 283.713 259.042 281.883 261.155 283.3C263.268 284.717 248.325 283.713 248.325 283.713Z" fill="black"/>
<path opacity="0.1" d="M273.71 242.013C273.71 242.013 272.062 248.789 273.297 250.344C274.532 251.899 273.71 242.013 273.71 242.013Z" fill="black"/>
<path opacity="0.1" d="M242.644 236.476C242.644 236.476 244.175 238.99 243.241 241.6C242.308 244.21 242.644 236.476 242.644 236.476Z" fill="black"/>
<path d="M239.531 258.537C239.531 258.537 241.455 259.684 240.812 261.469C240.169 263.253 239.531 258.537 239.531 258.537Z" fill="#00B0FF"/>
<path opacity="0.1" d="M239.358 253.321C239.358 253.321 241.144 254.28 241.374 255.697C241.604 257.115 239.358 253.321 239.358 253.321Z" fill="black"/>
<path opacity="0.1" d="M265.83 308.063C265.83 308.063 277.058 309.21 279.298 306.534C279.298 306.554 269.173 308.548 265.83 308.063Z" fill="black"/>
<path opacity="0.1" d="M246.447 307.421C246.447 307.421 258.496 310.261 260.879 308.017C260.879 308.038 250.524 308.797 246.447 307.421Z" fill="black"/>
<path opacity="0.1" d="M266.698 311.77C266.698 311.77 271.74 311.77 274.078 311.907C276.415 312.045 266.698 311.77 266.698 311.77Z" fill="black"/>
<path opacity="0.1" d="M247.273 313.921C247.273 313.921 249.749 316.715 252.54 316.211C255.332 315.706 247.273 313.921 247.273 313.921Z" fill="black"/>
<path d="M252.117 199.574C251.341 200.777 251.315 202.169 251.096 203.504C250.541 206.771 249.007 209.794 246.697 212.172C244.502 214.507 241.486 216.623 240.914 219.473C240.379 222.18 242.206 224.785 243.165 227.421C245.717 234.37 242.144 241.661 241.124 248.835C240.838 250.818 241.18 253.352 243.624 254.01C244.39 254.214 245.263 254.188 245.952 254.52C246.87 254.958 247.151 255.876 247.319 256.697C247.934 259.644 248.147 262.66 247.952 265.665C247.84 267.352 247.717 269.29 249.31 270.452C250.123 270.953 251.018 271.309 251.953 271.502C254.464 272.181 257.71 272.716 259.405 271.135C260.114 270.473 260.379 269.534 261.267 269.009C262.594 268.224 264.478 268.754 266.146 268.836C267.73 268.902 269.302 268.541 270.698 267.792C272.094 267.043 273.263 265.933 274.083 264.579C275.435 262.142 275.318 259.378 274.817 256.758C274.317 254.137 273.45 251.547 273.388 248.896C273.308 247.969 273.515 247.04 273.98 246.235C275.001 244.654 277.374 243.935 279.002 242.696C282.064 240.371 282.034 236.578 280.932 233.366C279.829 230.154 277.834 227.126 277.589 223.827C277.481 223.03 277.639 222.22 278.038 221.522C278.589 220.876 279.226 220.308 279.931 219.835C284.376 216.087 283.851 209.928 280.176 205.717C276.104 201.027 257.68 190.967 252.117 199.574Z" fill="#E3787D"/>
<g opacity="0.1">
<path opacity="0.1" d="M243.762 230.348C244.195 227.58 243.954 224.748 243.058 222.093C242.578 220.763 241.874 219.442 241.358 218.111C241.105 218.594 240.92 219.108 240.807 219.641C240.271 222.348 242.098 224.954 243.058 227.589C243.384 228.483 243.62 229.407 243.762 230.348Z" fill="black"/>
<path opacity="0.1" d="M247.855 260.337C248.05 257.333 247.837 254.316 247.222 251.369C247.054 250.548 246.773 249.63 245.855 249.192C245.166 248.86 244.293 248.886 243.527 248.682C243.061 248.567 242.626 248.348 242.256 248.041C241.886 247.735 241.589 247.349 241.389 246.913C241.251 247.606 241.129 248.304 241.027 248.998C240.741 250.981 241.083 253.515 243.527 254.173C244.293 254.377 245.166 254.351 245.855 254.683C246.773 255.126 247.054 256.039 247.222 256.865C247.506 258.231 247.703 259.614 247.814 261.005C247.825 260.78 247.84 260.556 247.855 260.337Z" fill="black"/>
<path opacity="0.1" d="M273.986 259.251C273.166 260.606 271.997 261.716 270.601 262.465C269.205 263.214 267.633 263.574 266.05 263.508C264.381 263.426 262.477 262.896 261.171 263.681C260.288 264.191 260.017 265.145 259.308 265.807C257.613 267.388 254.368 266.853 251.857 266.174C250.921 265.982 250.028 265.625 249.218 265.119C248.526 264.61 248.058 263.854 247.912 263.008C247.912 263.946 247.912 264.89 247.855 265.828C247.743 267.515 247.621 269.453 249.218 270.615C250.029 271.117 250.922 271.472 251.857 271.665C254.368 272.343 257.613 272.879 259.308 271.303C260.017 270.636 260.288 269.697 261.171 269.172C262.498 268.387 264.381 268.917 266.05 268.999C267.633 269.065 269.205 268.705 270.601 267.956C271.997 267.207 273.166 266.097 273.986 264.742C275.287 262.402 275.231 259.756 274.777 257.227C274.603 257.933 274.337 258.614 273.986 259.251Z" fill="black"/>
<path opacity="0.1" d="M279.793 214.466C279.097 214.952 278.473 215.534 277.941 216.194C277.541 216.892 277.384 217.702 277.492 218.499C277.582 219.502 277.794 220.49 278.124 221.441C278.634 220.896 279.192 220.399 279.793 219.957C282.799 217.408 283.529 213.788 282.554 210.397C282.042 211.989 281.084 213.401 279.793 214.466Z" fill="black"/>
<path opacity="0.1" d="M278.906 237.368C277.278 238.607 274.904 239.326 273.884 240.901C273.42 241.71 273.213 242.64 273.292 243.568C273.331 244.639 273.462 245.705 273.685 246.754C273.741 246.63 273.807 246.511 273.884 246.398C274.904 244.817 277.278 244.098 278.906 242.859C281.682 240.733 281.917 237.373 281.095 234.375C280.674 235.566 279.913 236.606 278.906 237.368Z" fill="black"/>
</g>
<path d="M299.83 238.49C297.952 243.252 295.518 245.118 295.518 245.118H294.165L282.279 245.24L280.906 241.488L282.83 233.386L284.019 233.432C284.734 233.81 285.51 234.059 286.311 234.166C287.183 234.166 288.862 234.121 289.373 234.35C289.444 234.38 289.521 234.391 289.597 234.381C290.047 234.335 290.516 233.662 290.516 233.662C290.516 233.662 301.703 233.728 299.83 238.49Z" fill="#00B0FF"/>
<path opacity="0.1" d="M299.83 238.49C297.952 243.252 295.518 245.118 295.518 245.118H294.165C294.875 243.231 296.36 239.362 296.942 238.49C297.523 237.618 292.517 235.538 289.608 234.411C290.057 234.365 290.526 233.692 290.526 233.692C290.526 233.692 301.703 233.728 299.83 238.49Z" fill="black"/>
<defs>
<linearGradient id="paint0_linear" x1="293.139" y1="242.202" x2="293.139" y2="196.958" gradientUnits="userSpaceOnUse">
<stop stop-color="#808080" stop-opacity="0.25"/>
<stop offset="0.54" stop-color="#808080" stop-opacity="0.12"/>
<stop offset="1" stop-color="#808080" stop-opacity="0.1"/>
</linearGradient>
<linearGradient id="paint1_linear" x1="8145.96" y1="9540.41" x2="8145.96" y2="9311.24" gradientUnits="userSpaceOnUse">
<stop stop-color="#808080" stop-opacity="0.25"/>
<stop offset="0.54" stop-color="#808080" stop-opacity="0.12"/>
<stop offset="1" stop-color="#808080" stop-opacity="0.1"/>
</linearGradient>
<linearGradient id="paint2_linear" x1="7679.11" y1="9496.29" x2="7679.11" y2="9267.02" gradientUnits="userSpaceOnUse">
<stop stop-color="#808080" stop-opacity="0.25"/>
<stop offset="0.54" stop-color="#808080" stop-opacity="0.12"/>
<stop offset="1" stop-color="#808080" stop-opacity="0.1"/>
</linearGradient>
<linearGradient id="paint3_linear" x1="4801.27" y1="3874.05" x2="4801.27" y2="3840.1" gradientUnits="userSpaceOnUse">
<stop stop-color="#808080" stop-opacity="0.25"/>
<stop offset="0.54" stop-color="#808080" stop-opacity="0.12"/>
<stop offset="1" stop-color="#808080" stop-opacity="0.1"/>
</linearGradient>
<linearGradient id="paint4_linear" x1="5407.12" y1="4009.37" x2="5407.12" y2="3972.63" gradientUnits="userSpaceOnUse">
<stop stop-color="#808080" stop-opacity="0.25"/>
<stop offset="0.54" stop-color="#808080" stop-opacity="0.12"/>
<stop offset="1" stop-color="#808080" stop-opacity="0.1"/>
</linearGradient>
<linearGradient id="paint5_linear" x1="25562.2" y1="91600" x2="25562.2" y2="68141.2" gradientUnits="userSpaceOnUse">
<stop stop-color="#808080" stop-opacity="0.25"/>
<stop offset="0.54" stop-color="#808080" stop-opacity="0.12"/>
<stop offset="1" stop-color="#808080" stop-opacity="0.1"/>
</linearGradient>
<linearGradient id="paint6_linear" x1="4145.11" y1="557.23" x2="4145.11" y2="557.064" gradientUnits="userSpaceOnUse">
<stop stop-color="#808080" stop-opacity="0.25"/>
<stop offset="0.54" stop-color="#808080" stop-opacity="0.12"/>
<stop offset="1" stop-color="#808080" stop-opacity="0.1"/>
</linearGradient>
<linearGradient id="paint7_linear" x1="4132.86" y1="838.807" x2="4132.86" y2="837.931" gradientUnits="userSpaceOnUse">
<stop stop-color="#808080" stop-opacity="0.25"/>
<stop offset="0.54" stop-color="#808080" stop-opacity="0.12"/>
<stop offset="1" stop-color="#808080" stop-opacity="0.1"/>
</linearGradient>
<linearGradient id="paint8_linear" x1="3159.61" y1="1174.41" x2="3159.61" y2="1171.92" gradientUnits="userSpaceOnUse">
<stop stop-color="#808080" stop-opacity="0.25"/>
<stop offset="0.54" stop-color="#808080" stop-opacity="0.12"/>
<stop offset="1" stop-color="#808080" stop-opacity="0.1"/>
</linearGradient>
<linearGradient id="paint9_linear" x1="4553.72" y1="16448.3" x2="4553.72" y2="15152.5" gradientUnits="userSpaceOnUse">
<stop stop-color="#808080" stop-opacity="0.25"/>
<stop offset="0.54" stop-color="#808080" stop-opacity="0.12"/>
<stop offset="1" stop-color="#808080" stop-opacity="0.1"/>
</linearGradient>
<linearGradient id="paint10_linear" x1="11492.6" y1="9588.71" x2="11492.6" y2="8697.03" gradientUnits="userSpaceOnUse">
<stop stop-color="#808080" stop-opacity="0.25"/>
<stop offset="0.54" stop-color="#808080" stop-opacity="0.12"/>
<stop offset="1" stop-color="#808080" stop-opacity="0.1"/>
</linearGradient>
<linearGradient id="paint11_linear" x1="12611.7" y1="8648.54" x2="12611.7" y2="8119.62" gradientUnits="userSpaceOnUse">
<stop stop-color="#808080" stop-opacity="0.25"/>
<stop offset="0.54" stop-color="#808080" stop-opacity="0.12"/>
<stop offset="1" stop-color="#808080" stop-opacity="0.1"/>
</linearGradient>
<linearGradient id="paint12_linear" x1="25222" y1="5131.89" x2="25222" y2="5017.97" gradientUnits="userSpaceOnUse">
<stop stop-color="#808080" stop-opacity="0.25"/>
<stop offset="0.54" stop-color="#808080" stop-opacity="0.12"/>
<stop offset="1" stop-color="#808080" stop-opacity="0.1"/>
</linearGradient>
<linearGradient id="paint13_linear" x1="29813" y1="44523.1" x2="29813" y2="34941.4" gradientUnits="userSpaceOnUse">
<stop stop-color="#808080" stop-opacity="0.25"/>
<stop offset="0.54" stop-color="#808080" stop-opacity="0.12"/>
<stop offset="1" stop-color="#808080" stop-opacity="0.1"/>
</linearGradient>
<linearGradient id="paint14_linear" x1="6223.74" y1="15061.1" x2="6223.74" y2="13790.8" gradientUnits="userSpaceOnUse">
<stop stop-color="#808080" stop-opacity="0.25"/>
<stop offset="0.54" stop-color="#808080" stop-opacity="0.12"/>
<stop offset="1" stop-color="#808080" stop-opacity="0.1"/>
</linearGradient>
<linearGradient id="paint15_linear" x1="6223.51" y1="3393.6" x2="6223.51" y2="3337.06" gradientUnits="userSpaceOnUse">
<stop stop-color="#808080" stop-opacity="0.25"/>
<stop offset="0.54" stop-color="#808080" stop-opacity="0.12"/>
<stop offset="1" stop-color="#808080" stop-opacity="0.1"/>
</linearGradient>
<linearGradient id="paint16_linear" x1="18357.6" y1="3693.76" x2="18357.6" y2="3625.74" gradientUnits="userSpaceOnUse">
<stop stop-color="#808080" stop-opacity="0.25"/>
<stop offset="0.54" stop-color="#808080" stop-opacity="0.12"/>
<stop offset="1" stop-color="#808080" stop-opacity="0.1"/>
</linearGradient>
<linearGradient id="paint17_linear" x1="2380.56" y1="5843.75" x2="2380.56" y2="5678.38" gradientUnits="userSpaceOnUse">
<stop stop-color="#808080" stop-opacity="0.25"/>
<stop offset="0.54" stop-color="#808080" stop-opacity="0.12"/>
<stop offset="1" stop-color="#808080" stop-opacity="0.1"/>
</linearGradient>
<linearGradient id="paint18_linear" x1="7770.93" y1="1075.93" x2="7770.93" y2="1072.58" gradientUnits="userSpaceOnUse">
<stop stop-color="#808080" stop-opacity="0.25"/>
<stop offset="0.54" stop-color="#808080" stop-opacity="0.12"/>
<stop offset="1" stop-color="#808080" stop-opacity="0.1"/>
</linearGradient>
<linearGradient id="paint19_linear" x1="973.782" y1="4880.13" x2="973.782" y2="4736.24" gradientUnits="userSpaceOnUse">
<stop stop-color="#808080" stop-opacity="0.25"/>
<stop offset="0.54" stop-color="#808080" stop-opacity="0.12"/>
<stop offset="1" stop-color="#808080" stop-opacity="0.1"/>
</linearGradient>
<linearGradient id="paint20_linear" x1="762.594" y1="3232.86" x2="762.594" y2="3168.86" gradientUnits="userSpaceOnUse">
<stop stop-color="#808080" stop-opacity="0.25"/>
<stop offset="0.54" stop-color="#808080" stop-opacity="0.12"/>
<stop offset="1" stop-color="#808080" stop-opacity="0.1"/>
</linearGradient>
<linearGradient id="paint21_linear" x1="1012.22" y1="2155.02" x2="1012.22" y2="2132.82" gradientUnits="userSpaceOnUse">
<stop stop-color="#808080" stop-opacity="0.25"/>
<stop offset="0.54" stop-color="#808080" stop-opacity="0.12"/>
<stop offset="1" stop-color="#808080" stop-opacity="0.1"/>
</linearGradient>
<linearGradient id="paint22_linear" x1="1347.73" y1="1755.16" x2="1347.73" y2="1740.63" gradientUnits="userSpaceOnUse">
<stop stop-color="#808080" stop-opacity="0.25"/>
<stop offset="0.54" stop-color="#808080" stop-opacity="0.12"/>
<stop offset="1" stop-color="#808080" stop-opacity="0.1"/>
</linearGradient>
<linearGradient id="paint23_linear" x1="8525.19" y1="1471.66" x2="8525.19" y2="1465.49" gradientUnits="userSpaceOnUse">
<stop stop-color="#808080" stop-opacity="0.25"/>
<stop offset="0.54" stop-color="#808080" stop-opacity="0.12"/>
<stop offset="1" stop-color="#808080" stop-opacity="0.1"/>
</linearGradient>
<linearGradient id="paint24_linear" x1="8541.39" y1="1271.39" x2="8541.39" y2="1267.17" gradientUnits="userSpaceOnUse">
<stop stop-color="#808080" stop-opacity="0.25"/>
<stop offset="0.54" stop-color="#808080" stop-opacity="0.12"/>
<stop offset="1" stop-color="#808080" stop-opacity="0.1"/>
</linearGradient>
<linearGradient id="paint25_linear" x1="4982.98" y1="427.846" x2="4982.98" y2="427.786" gradientUnits="userSpaceOnUse">
<stop stop-color="#808080" stop-opacity="0.25"/>
<stop offset="0.54" stop-color="#808080" stop-opacity="0.12"/>
<stop offset="1" stop-color="#808080" stop-opacity="0.1"/>
</linearGradient>
<linearGradient id="paint26_linear" x1="3571.52" y1="1905.32" x2="3571.52" y2="1894.3" gradientUnits="userSpaceOnUse">
<stop stop-color="#808080" stop-opacity="0.25"/>
<stop offset="0.54" stop-color="#808080" stop-opacity="0.12"/>
<stop offset="1" stop-color="#808080" stop-opacity="0.1"/>
</linearGradient>
<linearGradient id="paint27_linear" x1="25240.7" y1="44985.4" x2="25240.7" y2="33471.2" gradientUnits="userSpaceOnUse">
<stop stop-color="#808080" stop-opacity="0.25"/>
<stop offset="0.54" stop-color="#808080" stop-opacity="0.12"/>
<stop offset="1" stop-color="#808080" stop-opacity="0.1"/>
</linearGradient>
<linearGradient id="paint28_linear" x1="2038.48" y1="6408.03" x2="2038.48" y2="6109.44" gradientUnits="userSpaceOnUse">
<stop stop-color="#808080" stop-opacity="0.25"/>
<stop offset="0.54" stop-color="#808080" stop-opacity="0.12"/>
<stop offset="1" stop-color="#808080" stop-opacity="0.1"/>
</linearGradient>
<linearGradient id="paint29_linear" x1="4124.8" y1="8234.53" x2="4124.8" y2="7838.65" gradientUnits="userSpaceOnUse">
<stop stop-color="#808080" stop-opacity="0.25"/>
<stop offset="0.54" stop-color="#808080" stop-opacity="0.12"/>
<stop offset="1" stop-color="#808080" stop-opacity="0.1"/>
</linearGradient>
<linearGradient id="paint30_linear" x1="16353.3" y1="9163.2" x2="16353.3" y2="8708.27" gradientUnits="userSpaceOnUse">
<stop stop-color="#808080" stop-opacity="0.25"/>
<stop offset="0.54" stop-color="#808080" stop-opacity="0.12"/>
<stop offset="1" stop-color="#808080" stop-opacity="0.1"/>
</linearGradient>
<linearGradient id="paint31_linear" x1="3735.68" y1="5600.25" x2="3735.68" y2="5357.06" gradientUnits="userSpaceOnUse">
<stop stop-color="#808080" stop-opacity="0.25"/>
<stop offset="0.54" stop-color="#808080" stop-opacity="0.12"/>
<stop offset="1" stop-color="#808080" stop-opacity="0.1"/>
</linearGradient>
<linearGradient id="paint32_linear" x1="5403.59" y1="6903.68" x2="5403.59" y2="6598.02" gradientUnits="userSpaceOnUse">
<stop stop-color="#808080" stop-opacity="0.25"/>
<stop offset="0.54" stop-color="#808080" stop-opacity="0.12"/>
<stop offset="1" stop-color="#808080" stop-opacity="0.1"/>
</linearGradient>
<linearGradient id="paint33_linear" x1="12707.9" y1="6576.01" x2="12707.9" y2="6296.12" gradientUnits="userSpaceOnUse">
<stop stop-color="#808080" stop-opacity="0.25"/>
<stop offset="0.54" stop-color="#808080" stop-opacity="0.12"/>
<stop offset="1" stop-color="#808080" stop-opacity="0.1"/>
</linearGradient>
<linearGradient id="paint34_linear" x1="7158.25" y1="6367.66" x2="7158.25" y2="6105.86" gradientUnits="userSpaceOnUse">
<stop stop-color="#808080" stop-opacity="0.25"/>
<stop offset="0.54" stop-color="#808080" stop-opacity="0.12"/>
<stop offset="1" stop-color="#808080" stop-opacity="0.1"/>
</linearGradient>
</defs>
</svg>
