<svg id="Layer_1" data-name="Layer 1" xmlns="http://www.w3.org/2000/svg" xmlns:xlink="http://www.w3.org/1999/xlink" width="1280" height="619" viewBox="0 0 1280 619">
  <defs>
    <style>
      .cls-1 {
        fill: url(#linear-gradient);
      }

      .cls-2 {
        fill: #fff;
        opacity: 0.15;
      }
    </style>
    <linearGradient id="linear-gradient" x1="-0.19" y1="2.04" x2="1208.37" y2="540.13" gradientUnits="userSpaceOnUse">
      <stop offset="0" stop-color="#311b92"/>
      <stop offset="0.26" stop-color="#351e95"/>
      <stop offset="0.55" stop-color="#42259e"/>
      <stop offset="0.84" stop-color="#5831ac"/>
      <stop offset="1" stop-color="#673ab7"/>
    </linearGradient>
  </defs>
  <title>news</title>
  <g>
    <path class="cls-1" d="M1280.5.5V378.12s-78.14-30.86-189.7,40c-.78.49-1.54,1-2.32,1.5h0A436.91,436.91,0,0,0,1046,451a299.68,299.68,0,0,1-57.56,37.51A326.63,326.63,0,0,1,953,503.64c-54.36,19.6-113.42,25.14-169.59,19.74h0c-14-1.34-27.91-3.37-41.47-6q-6.76-1.32-13.41-2.86c-14.83-3.42-28.92-6.17-42.36-8.29l-1.85-.3c-90-14-150.22-.45-200.78,21.44q-5,2.17-9.95,4.46c-22.7,10.52-43.65,22.53-64.82,34.17-7.62,4.19-15.27,8.33-23,12.33C353.16,595.05,318.51,609.42,275,615a492.76,492.76,0,0,1-64.74,4c-14.19,0-27.91-.69-41.08-1.79a536.41,536.41,0,0,1-99.36-17.91c-9.65-2.7-18.43-5.45-26.26-8.1C16.18,581.93.5,573.92.5,573.92V.5Z"/>
    <path class="cls-2" d="M385.7,578.29C353.16,595.05,318.51,609.42,275,615a492.76,492.76,0,0,1-64.74,4c-14.19,0-27.91-.69-41.08-1.79a536.41,536.41,0,0,1-99.36-17.91c66.47-32.77,154.43-58,252.48-39.15q3,.55,6,1.19A372.81,372.81,0,0,1,385.7,578.29Z"/>
    <path class="cls-2" d="M953,503.64c-54.36,19.6-113.42,25.14-169.59,19.74h0c-14-1.34-27.91-3.37-41.47-6q-6.76-1.32-13.41-2.86c-14.83-3.42-28.92-6.17-42.36-8.29C708.21,489,735.06,475,764,475c29.44,0,49.78,6.49,70.25,13.48C864.05,498.64,894.13,509.85,953,503.64Z"/>
    <path class="cls-2" d="M473.56,531.79c-22.7,10.52-43.65,22.53-64.82,34.17-7.62,4.19-15.27,8.33-23,12.33C353.16,595.05,318.51,609.42,275,615a492.76,492.76,0,0,1-64.74,4c28.22-18.94,66.85-41.44,112-58.85,12.2-4.69,24.88-9,38-12.81A391.25,391.25,0,0,1,436,533,352.13,352.13,0,0,1,473.56,531.79Z"/>
    <path class="cls-2" d="M1088.46,419.63A436.91,436.91,0,0,0,1046,451a299.68,299.68,0,0,1-57.56,37.51A326.63,326.63,0,0,1,953,503.64c-54.36,19.6-113.42,25.14-169.59,19.74h0c-1.83-.34-3.65-.68-5.47-1C795,511.65,813.79,500,834.25,488.48,900.89,451,985.42,415.1,1088.46,419.63Z"/>
  </g>
</svg>
