<svg width="1280" height="380" viewBox="0 0 1280 380" fill="none" xmlns="http://www.w3.org/2000/svg">
<path d="M1280 0V329C1156.08 319.84 1077.73 323.93 1016.14 333.54C992.81 337.18 971.88 341.61 951.8 346.41C914.93 355.22 880.89 365.28 840 374C798.94 382.75 761.13 380.59 721.61 373.89C676.5 366.23 629.16 352.65 572.24 342.58C523.219 333.712 473.475 329.457 423.66 329.87C384.023 330.315 344.457 333.365 305.22 339C294.727 340.467 283.987 342.133 273 344C178.54 360.2 106.67 359 60.45 354.37C35.16 351.85 17.54 348.37 8.09 346.1C2.73 344.84 0 344 0 344V0H1280Z" fill="url(#paint0_linear)"/>
<path opacity="0.26" d="M305.22 339C294.727 340.467 283.987 342.133 273 344C178.54 360.2 106.67 359 60.45 354.37C35.16 351.85 17.54 348.37 8.09 346.1L5 344C5 344 67.93 330.84 170.23 331.11C215.338 331.256 260.403 333.89 305.22 339V339Z" fill="white"/>
<path opacity="0.26" d="M951.8 346.41C914.93 355.22 880.89 365.28 840 374C798.94 382.75 761.13 380.59 721.61 373.89C676.5 366.23 629.16 352.65 572.24 342.58C646.92 337.48 733.18 332.5 818.34 334.98C863.78 336.29 908.91 339.73 951.8 346.41Z" fill="white"/>
<path opacity="0.26" d="M1016.14 333.54C992.81 337.18 971.88 341.61 951.8 346.41C914.93 355.22 880.89 365.28 840 374C798.94 382.75 761.13 380.59 721.61 373.89C752.211 357.167 784.679 344.114 818.34 335C878.06 319 944.15 316 1016.14 333.54Z" fill="white"/>
<path opacity="0.26" d="M423.66 329.87C384.023 330.315 344.457 333.365 305.22 339C294.727 340.467 283.987 342.133 273 344C178.54 360.2 106.67 359 60.45 354.37C87.87 347.58 126.91 338.67 170.23 331.11C257.37 315.88 361.79 306.07 423.66 329.87Z" fill="white"/>
<defs>
<linearGradient id="paint0_linear" x1="41.97" y1="-94.26" x2="1232.46" y2="435.78" gradientUnits="userSpaceOnUse">
<stop offset="0.42" stop-color="#E22370"/>
<stop offset="0.5" stop-color="#E52874"/>
<stop offset="1" stop-color="#F7418B"/>
</linearGradient>
</defs>
</svg>
