<svg width="1280" height="376" viewBox="0 0 1280 376" fill="none" xmlns="http://www.w3.org/2000/svg">
<path d="M1280 0V321.8C1225 308.1 1174.4 300.4 1126.5 297C988.9 287.4 873.5 313.8 740.2 338.6C668.1 352 590.8 364.9 501.9 371.3C501.8 371.3 501.8 371.3 501.7 371.3C434 376.2 371.9 376.6 316.4 374.3C209.2 369.8 125.9 355 71.8 342.2C25 331.2 0 321.8 0 321.8V0H1280Z" fill="url(#paint0_linear)"/>
<path opacity="0.25" d="M501.8 371.3C501.7 371.3 501.7 371.3 501.6 371.3C433.9 376.2 371.8 376.6 316.3 374.3C209.1 369.8 125.8 355 71.7 342.2C132 328.2 265.8 303.9 377.2 331.9C390.1 335.1 401.3 338.2 410.9 341C468.7 357.8 473 366.8 501.8 371.3Z" fill="white"/>
<path opacity="0.25" d="M1280 272.7V321.8C1225 308.1 1174.4 300.4 1126.5 297C1164.6 286.8 1225.2 273.1 1280 272.7Z" fill="white"/>
<path opacity="0.25" d="M740.2 338.6C668.1 352 590.8 364.9 501.9 371.3C501.8 371.3 501.8 371.3 501.7 371.3C434 376.2 371.9 376.6 316.4 374.3C335.8 366.1 369.2 352.9 411 341C500.3 315.4 628.2 295 740.2 338.6Z" fill="white"/>
<defs>
<linearGradient id="paint0_linear" x1="0" y1="187.854" x2="1280" y2="187.854" gradientUnits="userSpaceOnUse">
<stop stop-color="#751434"/>
<stop offset="0.1592" stop-color="#7B1738"/>
<stop offset="0.3739" stop-color="#8C2041"/>
<stop offset="0.6204" stop-color="#A82E52"/>
<stop offset="0.8885" stop-color="#D04268"/>
<stop offset="1" stop-color="#E24B73"/>
</linearGradient>
</defs>
</svg>
