<svg width="1280" height="461" viewBox="0 0 1280 461" fill="none" xmlns="http://www.w3.org/2000/svg">
<path d="M1280 0V406.6C1225 392.9 1174.4 385.2 1126.5 381.8C988.9 372.2 873.5 398.6 740.2 423.4C668.1 436.8 590.8 449.7 501.9 456.1C501.8 456.1 501.8 456.1 501.7 456.1C434 461 371.9 461.4 316.4 459.1C209.2 454.6 125.9 439.8 71.8 427C25 416.1 0 406.6 0 406.6V0H1280Z" fill="url(#paint0_linear)"/>
<path opacity="0.25" d="M501.8 456.1C501.7 456.1 501.7 456.1 501.6 456.1C433.9 461 371.8 461.4 316.3 459.1C209.1 454.6 125.8 439.8 71.7 427C132 413 265.8 388.7 377.2 416.7C390.1 419.9 401.3 423 410.9 425.8C468.7 442.6 473 451.6 501.8 456.1Z" fill="white"/>
<path opacity="0.25" d="M1280 357.5V406.6C1225 392.9 1174.4 385.2 1126.5 381.8C1164.6 371.6 1225.2 357.9 1280 357.5Z" fill="white"/>
<path opacity="0.25" d="M740.2 423.4C668.1 436.8 590.8 449.7 501.9 456.1C501.8 456.1 501.8 456.1 501.7 456.1C434 461 371.9 461.4 316.4 459.1C335.8 450.9 369.2 437.7 411 425.8C500.3 400.2 628.2 379.9 740.2 423.4Z" fill="white"/>
<defs>
<linearGradient id="paint0_linear" x1="30.3357" y1="-68.135" x2="1249.66" y2="474.745" gradientUnits="userSpaceOnUse">
<stop stop-color="#751434"/>
<stop offset="0.1913" stop-color="#791636"/>
<stop offset="0.3832" stop-color="#851C3D"/>
<stop offset="0.5755" stop-color="#992649"/>
<stop offset="0.7681" stop-color="#B53459"/>
<stop offset="0.9592" stop-color="#D9476E"/>
<stop offset="1" stop-color="#E24B73"/>
</linearGradient>
</defs>
</svg>
