<svg id="Layer_1" data-name="Layer 1" xmlns="http://www.w3.org/2000/svg" xmlns:xlink="http://www.w3.org/1999/xlink" width="1280" height="495" viewBox="0 0 1280 495">
  <defs>
    <style>
      .cls-1 {
        fill: url(#linear-gradient);
      }

      .cls-2 {
        fill: #fff;
        opacity: 0.3;
      }
    </style>
    <linearGradient id="linear-gradient" x1="25.25" y1="-54.46" x2="1239.8" y2="486.29" gradientUnits="userSpaceOnUse">
      <stop offset="0" stop-color="#d61261"/>
      <stop offset="0.42" stop-color="#e22370"/>
      <stop offset="1" stop-color="#f7418b"/>
    </linearGradient>
  </defs>
  <title>news</title>
  <g>
    <path class="cls-1" d="M1280,1V396c-69.21-5.73-112.6,9.83-148.9,30.22-34.85,19.56-63.18,43.56-101.57,57.42C1010.26,490.6,988.45,495,962,495c-48.09,0-89.66-8.77-129.42-20.5-50.71-15-98.46-34.76-153-47.35C611,411.33,531.61,406.89,422.12,437.74Q397.6,444.66,371,454A689,689,0,0,1,274,480.89c-76.09,14.82-133.51,9.81-175.55-2.24C64.72,469,40.9,454.83,25.25,442.73,8.37,429.66,1,419,1,419V0Z"/>
    <path class="cls-2" d="M309,417c37.26,0,76.34,8.55,113.12,20.74Q397.6,444.66,371,454A689,689,0,0,1,274,480.89c-76.09,14.82-133.51,9.81-175.55-2.24,13.42-10.16,37-25.38,71.42-38.16C204.85,427.48,251,417,309,417Z"/>
    <path class="cls-2" d="M1131.1,426.22c-34.85,19.56-63.18,43.56-101.57,57.42C1010.26,490.6,988.45,495,962,495c-48.09,0-89.66-8.77-129.42-20.5a393.51,393.51,0,0,1,59.48-28.82A419.82,419.82,0,0,1,1131.1,426.22Z"/>
    <path class="cls-2" d="M169.82,440.49c30.4,12.53,64.35,28.79,104.13,40.4-76.09,14.82-133.51,9.81-175.55-2.24C64.72,469,40.9,454.83,25.25,442.73,48.9,430.24,93,413.88,142,430,151,433,160.22,436.53,169.82,440.49Z"/>
    <path class="cls-2" d="M1029.53,483.64C1010.26,490.6,988.45,495,962,495c-48.09,0-89.66-8.77-129.42-20.5-50.71-15-98.46-34.76-153-47.35C740.7,409.91,770.4,404,816,414c22.06,4.86,45.65,18,76.06,31.68C926.55,461.25,969.81,477.61,1029.53,483.64Z"/>
  </g>
</svg>
