<svg width="1280" height="375" viewBox="0 0 1280 375" fill="none" xmlns="http://www.w3.org/2000/svg">
<path d="M1280 0V329C1257 336.65 1235.54 343 1215.43 348.32C1197.71 352.98 1181.01 356.78 1165.18 359.83C1082.62 375.75 1023.38 371.39 963.18 362.21C943.52 359.21 923.76 355.7 903.05 352.21C829.75 339.89 744.58 327.88 610.05 340.11C582.25 342.64 552.35 346.2 520.05 351C503.123 353.52 486.71 355.803 470.81 357.85C436.31 362.317 404.15 365.797 374.33 368.29C197.62 383.29 99.41 367.14 48.42 351.24C12.5 340.06 0 329 0 329V0H1280Z" fill="url(#paint0_linear)"/>
<path opacity="0.25" d="M422.4 349.45C438.02 352.03 454.2 354.87 470.76 357.85C436.26 362.317 404.1 365.797 374.28 368.29C197.57 383.29 99.36 367.14 48.37 351.24C110.16 343.45 221 332.28 320 337C349.19 338.39 384.13 343.13 422.4 349.45Z" fill="white"/>
<path opacity="0.25" d="M1215.43 348.32C1197.71 352.98 1181.01 356.78 1165.18 359.83C1082.62 375.75 1023.38 371.39 963.18 362.21C1012.5 350.162 1063.02 343.675 1113.79 342.87C1147.76 342.243 1181.72 344.065 1215.43 348.32V348.32Z" fill="white"/>
<path opacity="0.25" d="M610.05 340.11C582.25 342.64 552.35 346.2 520.05 351C503.123 353.52 486.71 355.803 470.81 357.85C436.31 362.317 404.15 365.797 374.33 368.29C389.957 361.002 406.029 354.709 422.45 349.45C473.05 333.23 538.25 323.5 610.05 340.11Z" fill="white"/>
<path opacity="0.25" d="M1165.18 359.83C1082.62 375.75 1023.38 371.39 963.18 362.21C943.52 359.21 923.76 355.7 903.05 352.21C953.4 343.66 1007.4 335.35 1075.05 338C1088.1 338.516 1101.07 340.146 1113.84 342.87C1131.51 346.672 1148.72 352.358 1165.18 359.83V359.83Z" fill="white"/>
<defs>
<linearGradient id="paint0_linear" x1="44.26" y1="-99.41" x2="1234.75" y2="430.63" gradientUnits="userSpaceOnUse">
<stop stop-color="#311B92"/>
<stop offset="0.26" stop-color="#351E95"/>
<stop offset="0.55" stop-color="#42259E"/>
<stop offset="0.84" stop-color="#5831AC"/>
<stop offset="1" stop-color="#673AB7"/>
</linearGradient>
</defs>
</svg>
