<svg width="1280" height="638" viewBox="0 0 1280 638" fill="none" xmlns="http://www.w3.org/2000/svg">
<path d="M1280 0V592.1C1257 599.8 1235.5 606.1 1215.4 611.4C1214.8 611.6 1214.1 611.7 1213.5 611.9C1196.5 616.3 1180.4 620 1165.1 622.9C1165 622.9 1165 622.9 1164.9 622.9C1084.1 638.5 1025.6 634.6 966.6 625.8C965.4 625.6 964.2 625.5 963.1 625.3C944.6 622.5 926 619.2 906.6 615.9C905.4 615.7 904.2 615.5 902.9 615.3C829.8 603 744.6 591 610 603.2C609.5 603.2 608.9 603.3 608.4 603.4C581.1 605.9 551.7 609.4 520.1 614.1C503.2 616.6 486.8 618.9 470.9 620.9C470.2 621 469.5 621.1 468.9 621.2C437 625.3 407.1 628.6 379.2 631C377.6 631.1 376.1 631.3 374.5 631.4C200.8 646.1 103 630.8 51.3 615.2C50.4 614.9 49.5 614.7 48.6 614.4C12.5 603.2 0 592.1 0 592.1V0H1280Z" fill="url(#paint0_linear)"/>
<path opacity="0.25" d="M468.8 621.2C436.9 625.3 407 628.6 379.1 631C377.5 631.1 376 631.3 374.4 631.4C200.7 646.1 102.9 630.8 51.2002 615.2C113.2 607.4 223.4 596.4 321.9 601.1C351.1 602.5 386 607.2 424.3 613.6C438.7 615.9 453.5 618.5 468.8 621.2Z" fill="white"/>
<path opacity="0.25" d="M1217.2 612.4C1199.5 617.1 1182.8 620.9 1167 623.9C1166.3 623.6 1165.7 623.3 1165 623C1084.2 638.6 1025.7 634.7 966.7 625.9C1015.5 614.1 1065.4 607.8 1115.6 607H1115.7C1148.4 606.4 1181.1 608.1 1213.6 612C1214.8 612.1 1216 612.2 1217.2 612.4Z" fill="white"/>
<path opacity="0.25" d="M608.4 603.4C581.1 605.9 551.7 609.4 520.1 614.1C503.2 616.6 486.8 618.9 470.9 620.9C470.2 621 469.5 621.1 468.9 621.2C437 625.3 407.1 628.6 379.2 631C393.9 624.3 409 618.4 424.4 613.5C474 597.5 538 587.9 608.4 603.4Z" fill="white"/>
<path opacity="0.25" d="M1165 623C1084.2 638.6 1025.7 634.7 966.7 625.9C965.5 625.7 964.3 625.6 963.2 625.4C944.7 622.6 926.1 619.3 906.7 616C956.5 607.6 1010 599.5 1076.8 602.1C1089.8 602.6 1102.8 604.2 1115.6 607C1132.6 610.6 1149.1 616 1165 623Z" fill="white"/>
<defs>
<linearGradient id="paint0_linear" x1="-4.6214" y1="10.3798" x2="1283.63" y2="583.948" gradientUnits="userSpaceOnUse">
<stop stop-color="#311B92"/>
<stop offset="0.26" stop-color="#351E95"/>
<stop offset="0.55" stop-color="#42259E"/>
<stop offset="0.84" stop-color="#5831AC"/>
<stop offset="1" stop-color="#673AB7"/>
</linearGradient>
</defs>
</svg>
