<svg id="Layer_1" data-name="Layer 1" xmlns="http://www.w3.org/2000/svg" xmlns:xlink="http://www.w3.org/1999/xlink" width="1280" height="493" viewBox="0 0 1280 493">
  <defs>
    <style>
      .cls-1 {
        fill: url(#linear-gradient);
      }

      .cls-2 {
        fill: #fff;
        opacity: 0.15;
      }
    </style>
    <linearGradient id="linear-gradient" y1="245.9" x2="1280" y2="245.9" gradientUnits="userSpaceOnUse">
      <stop offset="0" stop-color="#311b92"/>
      <stop offset="0.26" stop-color="#351e95"/>
      <stop offset="0.55" stop-color="#42259e"/>
      <stop offset="0.84" stop-color="#5831ac"/>
      <stop offset="1" stop-color="#673ab7"/>
    </linearGradient>
  </defs>
  <title>news</title>
  <path class="cls-1" d="M1280,0V372c-65.69,0-91.32,18.14-114.36,40.34-17.06,16.44-32.69,35.11-62.12,50.28C1078.93,475.3,1044.72,485.54,992,490c-73,6.17-131.91-4.22-183.53-20.15C766.19,456.8,728.82,440,692.68,425.62c-71.94-28.72-139-48.15-230.23-10.52A381.18,381.18,0,0,0,427,432c-41.85,22.55-81,37.36-117.25,46.28-57.85,14.25-108.37,13.53-150.9,5.37a316.48,316.48,0,0,1-120-50.13C13.3,415.93,0,401,0,401V0Z"/>
  <g>
    <path class="cls-2" d="M210.61,456.78c24.19,8,55.41,15.89,99.14,21.5-57.85,14.25-108.37,13.53-150.9,5.37a316.48,316.48,0,0,1-120-50.13A248.13,248.13,0,0,1,116,426C146.17,427.74,166.94,442.37,210.61,456.78Z"/>
    <path class="cls-2" d="M1103.52,462.62C1078.93,475.3,1044.72,485.54,992,490c-73,6.17-131.91-4.22-183.53-20.15C766.19,456.8,728.82,440,692.68,425.62c52.87-16.91,103-21.68,175.32,16.38q4.11,2.16,8.3,4.11C950.87,480.79,1041,464.72,1103.52,462.62Z"/>
    <path class="cls-2" d="M427,432c-41.85,22.55-81,37.36-117.25,46.28-57.85,14.25-108.37,13.53-150.9,5.37a493.47,493.47,0,0,1,51.76-26.87C270,430.18,357.74,404.5,462.45,415.1A381.18,381.18,0,0,0,427,432Z"/>
    <path class="cls-2" d="M1165.64,412.34c-17.06,16.44-32.69,35.11-62.12,50.28C1078.93,475.3,1044.72,485.54,992,490c-73,6.17-131.91-4.22-183.53-20.15,21.39-8.3,43.94-16.37,67.83-23.74C955.58,421.63,1049.68,404.78,1165.64,412.34Z"/>
  </g>
</svg>
