<svg id="Layer_1" data-name="Layer 1" xmlns="http://www.w3.org/2000/svg" xmlns:xlink="http://www.w3.org/1999/xlink" width="1280" height="495" viewBox="0 0 1280 495">
  <defs>
    <style>
      .cls-1 {
        fill: url(#linear-gradient);
      }

      .cls-2 {
        fill: #fff;
        opacity: 0.25;
      }
    </style>
    <linearGradient id="linear-gradient" x1="26.81" y1="-60.21" x2="1236.62" y2="478.44" gradientUnits="userSpaceOnUse">
      <stop offset="0" stop-color="#004d40"/>
      <stop offset="0.24" stop-color="#025144"/>
      <stop offset="0.5" stop-color="#075f51"/>
      <stop offset="0.78" stop-color="#0f7467"/>
      <stop offset="1" stop-color="#188c7e"/>
    </linearGradient>
  </defs>
  <title>news</title>
  <g>
    <path class="cls-1" d="M1280,0V381c-29.62,8.35-46.59,20.32-60.46,33.37s-24.47,26.91-41.47,39.45C1148.57,475.59,1100.14,493,984,493a507.1,507.1,0,0,1-54.15-2.88c-52.71-5.65-98.47-19-140.71-34.19C686.58,419,604.76,371,494.47,394.77,472,399.62,448.29,407.47,423,419q-13.9,6.35-27.38,11.86c-100.72,41.25-182.94,48.62-245.81,42.22h0a350.14,350.14,0,0,1-74-15.49C25.64,441.13,0,419,0,419V0Z"/>
    <path class="cls-2" d="M317,410.48a478.43,478.43,0,0,1,78.65,20.38c-100.72,41.25-182.94,48.62-245.81,42.22h0a350.14,350.14,0,0,1-74-15.49C126.27,423.87,206.22,392,317,410.48Z"/>
    <path class="cls-2" d="M1178.07,453.82C1148.57,475.59,1100.14,493,984,493a507.1,507.1,0,0,1-54.15-2.88c-52.71-5.65-98.47-19-140.71-34.19,68.86-33.66,183.46-69.24,317.61-29.76A464.6,464.6,0,0,1,1178.07,453.82Z"/>
    <path class="cls-2" d="M494.47,394.77C472,399.62,448.29,407.47,423,419q-13.9,6.35-27.38,11.86c-100.72,41.25-182.94,48.62-245.81,42.22C198,466.13,257.94,449.16,317,410.48q5.52-3.6,11-7.48C376.46,368.9,436.89,374.1,494.47,394.77Z"/>
    <path class="cls-2" d="M1219.54,414.37c-13.76,12.93-24.47,26.91-41.47,39.45C1148.57,475.59,1100.14,493,984,493a507.1,507.1,0,0,1-54.15-2.88C996.49,476.66,1062.06,456.89,1104,428c.91-.63,1.83-1.24,2.75-1.83C1141.5,403.71,1182.41,404.7,1219.54,414.37Z"/>
  </g>
</svg>
