<svg width="1280" height="380" viewBox="0 0 1280 380" fill="none" xmlns="http://www.w3.org/2000/svg">
<path d="M1280 0V334C1258.8 340.1 1238.3 345.5 1218.6 350.3C1152.8 366.1 1095.2 374.5 1043.8 377.8C1006.5 380.2 972.4 380 940.8 378C867.3 373.4 807.6 359.3 751.9 347.4C678.4 331.6 612.1 319.6 531 338C527.2 338.9 523.5 339.7 519.8 340.5C485.2 348.1 452 354 420.4 358.6C361 367.2 307.2 371 259.4 371.7C177 372.9 112.5 364.8 68.5 356.4C23.7 347.9 0 339 0 339V0H1280Z" fill="url(#paint0_linear)"/>
<path opacity="0.25" d="M328.4 347.4C355.2 350.7 386.4 354.6 420.4 358.6C361 367.2 307.2 371 259.4 371.7C177 372.9 112.5 364.8 68.5 356.4C111.4 343.6 185.7 330.5 292.1 342.9C303 344.3 315.1 345.8 328.4 347.4Z" fill="white"/>
<path opacity="0.25" d="M1218.6 350.3C1152.8 366.1 1095.2 374.5 1043.8 377.8C1006.5 380.2 972.4 380 940.8 378C962.8 373.8 981.5 368.2 995.8 360.8C997.6 359.9 999.3 358.9 1000.9 358C1055.9 325.6 1147.3 335.1 1218.6 350.3Z" fill="white"/>
<path opacity="0.25" d="M519.8 340.5C485.2 348.1 452 354 420.4 358.6C361 367.2 307.2 371 259.4 371.7C276.7 364.5 301 355.2 328.4 347.4C370.4 335.3 439 320 519.8 340.5Z" fill="white"/>
<path opacity="0.25" d="M1043.8 377.8C1006.5 380.2 972.4 380 940.8 378C867.3 373.4 807.6 359.3 751.9 347.4C834 331 976 349 1043.8 377.8Z" fill="white"/>
<defs>
<linearGradient id="paint0_linear" x1="42.8967" y1="-96.3475" x2="1235.25" y2="434.52" gradientUnits="userSpaceOnUse">
<stop stop-color="#214375"/>
<stop offset="1" stop-color="#469B9B"/>
</linearGradient>
</defs>
</svg>
