<?xml version="1.0" encoding="utf-8"?>
<!-- Generator: Adobe Illustrator 24.0.3, SVG Export Plug-In . SVG Version: 6.00 Build 0)  -->
<svg version="1.1" xmlns="http://www.w3.org/2000/svg" xmlns:xlink="http://www.w3.org/1999/xlink" x="0px" y="0px"
	 viewBox="0 0 1280 380" style="enable-background:new 0 0 1280 380;" xml:space="preserve">
<style type="text/css">
	.st0{fill:url(#SVGID_1_);}
	.st1{display:none;}
	.st2{display:inline;fill:url(#SVGID_2_);}
	.st3{display:inline;opacity:0.3;fill:#FFFFFF;enable-background:new    ;}
	.st4{fill:url(#SVGID_3_);}
	.st5{opacity:0.25;fill:#FFFFFF;}
	.st6{opacity:0.25;fill:url(#SVGID_4_);}
	.st7{opacity:0.25;fill:url(#SVGID_5_);}
	.st8{fill:url(#SVGID_6_);}
	.st9{fill:url(#SVGID_7_);}
</style>
<g id="Layer_1">
</g>
<g id="Layer_2">
	<linearGradient id="SVGID_1_" gradientUnits="userSpaceOnUse" x1="42.8967" y1="-96.3475" x2="1235.2455" y2="434.5204">
		<stop  offset="0.3557" style="stop-color:#025144"/>
		<stop  offset="0.6986" style="stop-color:#0F7365"/>
		<stop  offset="1" style="stop-color:#188C7E"/>
	</linearGradient>
	<path class="st0" d="M1280,0v334c-21.24,6.14-41.7,11.55-61.42,16.29c-65.79,15.82-123.39,24.2-174.79,27.54
		c-37.35,2.43-71.42,2.2-102.97,0.21c-73.46-4.6-133.24-18.67-188.88-30.6C678.41,331.66,612.11,319.6,531,338
		c-3.75,0.85-7.49,1.68-11.21,2.49c-34.65,7.59-67.81,13.55-99.4,18.13c-59.38,8.63-113.2,12.42-161,13.1
		c-82.42,1.19-146.9-6.85-190.95-15.27C23.68,347.92,0,339,0,339V0H1280z"/>
	<path class="st5" d="M328.39,347.39c26.84,3.29,58.01,7.18,92,11.23c-59.38,8.63-113.2,12.42-161,13.1
		c-82.42,1.19-146.9-6.85-190.95-15.27C111.37,343.68,185.62,330.59,292,343C302.95,344.28,315.14,345.76,328.39,347.39z"/>
	<path class="st5" d="M1218.58,350.29c-65.79,15.82-123.39,24.2-174.79,27.54c-37.35,2.43-71.42,2.2-102.97,0.21
		c22.02-4.17,40.69-9.82,55.05-17.22c1.78-0.91,3.49-1.85,5.13-2.82C1055.92,325.6,1147.32,335.12,1218.58,350.29z"/>
	<path class="st5" d="M519.79,340.49c-34.65,7.59-67.81,13.55-99.4,18.13c-59.38,8.63-113.2,12.42-161,13.1
		c17.32-7.23,41.59-16.47,69-24.33C370.42,335.31,439,320,519.79,340.49z"/>
	<path class="st5" d="M1043.79,377.83c-37.35,2.43-71.42,2.2-102.97,0.21c-73.46-4.6-133.24-18.67-188.88-30.6
		C834,331,976,349,1043.79,377.83z"/>
</g>
</svg>
